<svg width="55" height="61" viewBox="0 0 55 61" fill="none" xmlns="http://www.w3.org/2000/svg">
<g filter="url(#filter0_d_1_5)">
<path d="M29.672 36.576L15.308 17.28C15.092 16.992 14.876 16.716 14.66 16.452C14.468 16.164 14.264 15.876 14.048 15.588H14.012L14.12 30.996C14.12 31.596 14.12 32.196 14.12 32.796C14.12 33.396 14.096 33.984 14.048 34.56C14.48 34.536 14.912 34.512 15.344 34.488C15.776 34.464 16.208 34.44 16.64 34.416V36H10.052V34.812C10.796 34.812 11.324 34.656 11.636 34.344C11.972 34.008 12.188 33.624 12.284 33.192C12.38 32.736 12.428 32.328 12.428 31.968L12.464 14.652C12.464 14.244 12.464 13.836 12.464 13.428C12.464 13.02 12.464 12.624 12.464 12.24C12.08 12.264 11.684 12.288 11.276 12.312C10.868 12.336 10.46 12.36 10.052 12.384V10.8H14.336L27.836 28.872C28.148 29.28 28.448 29.688 28.736 30.096C29.048 30.504 29.36 30.912 29.672 31.32H29.708L29.744 14.832C29.744 14.352 29.756 13.896 29.78 13.464C29.804 13.008 29.828 12.6 29.852 12.24C29.42 12.264 28.988 12.288 28.556 12.312C28.124 12.336 27.692 12.36 27.26 12.384V10.8H33.884V11.988C32.996 12.012 32.384 12.216 32.048 12.6C31.712 12.984 31.532 13.5 31.508 14.148C31.484 14.796 31.472 15.552 31.472 16.416L31.4 36.576H29.672Z" fill="#4C2606"/>
<path d="M27.98 46V44.812C28.892 44.764 29.516 44.56 29.852 44.2C30.188 43.816 30.368 43.3 30.392 42.652C30.44 41.98 30.464 41.224 30.464 40.384V24.832C30.464 24.352 30.476 23.896 30.5 23.464C30.524 23.008 30.548 22.6 30.572 22.24C30.14 22.264 29.708 22.288 29.276 22.312C28.844 22.336 28.412 22.36 27.98 22.384V20.8H44.684L44.864 27.1H43.676C43.676 25.684 43.448 24.616 42.992 23.896C42.536 23.152 41.936 22.66 41.192 22.42C40.448 22.156 39.62 22.036 38.708 22.06L36.08 22.132C35.192 22.156 34.58 22.372 34.244 22.78C33.908 23.164 33.716 23.68 33.668 24.328C33.62 24.976 33.596 25.72 33.596 26.56V32.752L39.86 32.788L39.608 29.656H41.192V37.252H40.04C40.04 36.172 39.884 35.404 39.572 34.948C39.284 34.492 38.828 34.216 38.204 34.12C37.58 34.024 36.764 34 35.756 34.048L33.596 34.156V41.716C33.596 42.364 33.584 42.928 33.56 43.408C33.56 43.864 33.536 44.248 33.488 44.56C33.896 44.536 34.304 44.524 34.712 44.524C35.12 44.5 35.528 44.476 35.936 44.452C36.344 44.428 36.752 44.416 37.16 44.416V46H27.98Z" fill="#4C2606"/>
</g>
<defs>
<filter id="filter0_d_1_5" x="0.052002" y="5.79999" width="54.812" height="55.2" filterUnits="userSpaceOnUse" color-interpolation-filters="sRGB">
<feFlood flood-opacity="0" result="BackgroundImageFix"/>
<feColorMatrix in="SourceAlpha" type="matrix" values="0 0 0 0 0 0 0 0 0 0 0 0 0 0 0 0 0 0 127 0" result="hardAlpha"/>
<feOffset dy="5"/>
<feGaussianBlur stdDeviation="5"/>
<feComposite in2="hardAlpha" operator="out"/>
<feColorMatrix type="matrix" values="0 0 0 0 0 0 0 0 0 0 0 0 0 0 0 0 0 0 0.25 0"/>
<feBlend mode="normal" in2="BackgroundImageFix" result="effect1_dropShadow_1_5"/>
<feBlend mode="normal" in="SourceGraphic" in2="effect1_dropShadow_1_5" result="shape"/>
</filter>
</defs>
</svg>
