<svg width="38" height="59" viewBox="0 0 38 59" fill="none" xmlns="http://www.w3.org/2000/svg">
<path d="M21.672 36.576L7.308 17.28C7.092 16.992 6.876 16.716 6.66 16.452C6.468 16.164 6.264 15.876 6.048 15.588H6.012L6.12 30.996C6.12 31.596 6.12 32.196 6.12 32.796C6.12 33.396 6.096 33.984 6.048 34.56C6.48 34.536 6.912 34.512 7.344 34.488C7.776 34.464 8.208 34.44 8.64 34.416V36H2.052V34.812C2.796 34.812 3.324 34.656 3.636 34.344C3.972 34.008 4.188 33.624 4.284 33.192C4.38 32.736 4.428 32.328 4.428 31.968L4.464 14.652C4.464 14.244 4.464 13.836 4.464 13.428C4.464 13.02 4.464 12.624 4.464 12.24C4.08 12.264 3.684 12.288 3.276 12.312C2.868 12.336 2.46 12.36 2.052 12.384V10.8H6.336L19.836 28.872C20.148 29.28 20.448 29.688 20.736 30.096C21.048 30.504 21.36 30.912 21.672 31.32H21.708L21.744 14.832C21.744 14.352 21.756 13.896 21.78 13.464C21.804 13.008 21.828 12.6 21.852 12.24C21.42 12.264 20.988 12.288 20.556 12.312C20.124 12.336 19.692 12.36 19.26 12.384V10.8H25.884V11.988C24.996 12.012 24.384 12.216 24.048 12.6C23.712 12.984 23.532 13.5 23.508 14.148C23.484 14.796 23.472 15.552 23.472 16.416L23.4 36.576H21.672Z" fill="black"/>
<path d="M19.98 49V47.812C20.892 47.764 21.516 47.56 21.852 47.2C22.188 46.816 22.368 46.3 22.392 45.652C22.44 44.98 22.464 44.224 22.464 43.384V27.832C22.464 27.352 22.476 26.896 22.5 26.464C22.524 26.008 22.548 25.6 22.572 25.24C22.14 25.264 21.708 25.288 21.276 25.312C20.844 25.336 20.412 25.36 19.98 25.384V23.8H36.684L36.864 30.1H35.676C35.676 28.684 35.448 27.616 34.992 26.896C34.536 26.152 33.936 25.66 33.192 25.42C32.448 25.156 31.62 25.036 30.708 25.06L28.08 25.132C27.192 25.156 26.58 25.372 26.244 25.78C25.908 26.164 25.716 26.68 25.668 27.328C25.62 27.976 25.596 28.72 25.596 29.56V35.752L31.86 35.788L31.608 32.656H33.192V40.252H32.04C32.04 39.172 31.884 38.404 31.572 37.948C31.284 37.492 30.828 37.216 30.204 37.12C29.58 37.024 28.764 37 27.756 37.048L25.596 37.156V44.716C25.596 45.364 25.584 45.928 25.56 46.408C25.56 46.864 25.536 47.248 25.488 47.56C25.896 47.536 26.304 47.524 26.712 47.524C27.12 47.5 27.528 47.476 27.936 47.452C28.344 47.428 28.752 47.416 29.16 47.416V49H19.98Z" fill="black"/>
</svg>
