<svg data-v-fde0c5aa="" xmlns="http://www.w3.org/2000/svg" viewBox="0 0 300 300" class="iconLeftSlogan"><!----><defs data-v-fde0c5aa=""><linearGradient data-v-fde0c5aa="" gradientTransform="rotate(25)" id="8d23e078-0f14-409b-a407-642433d69b10" x1="0%" y1="0%" x2="100%" y2="0%"><stop data-v-fde0c5aa="" offset="0%" stop-color="#DA6E2A" stop-opacity="1"></stop><stop data-v-fde0c5aa="" offset="100%" stop-color="#E39E5A" stop-opacity="1"></stop></linearGradient></defs><rect data-v-fde0c5aa="" fill="url(#8d23e078-0f14-409b-a407-642433d69b10)" x="0" y="0" width="300px" height="300px" class="logo-background-square"></rect><defs data-v-fde0c5aa=""><!----></defs><g data-v-fde0c5aa="" id="790e4508-0fc1-4814-8f65-ec97584dc22a" fill="#ffffff" transform="matrix(2.734429312614826,0,0,2.734429312614826,98.28584706839706,124.34539179411688)"><path d="M8.29 10.92L3.05 3.43L3.00 3.43L3.00 8.76L3.00 8.76Q3.00 9.41 3.49 9.81L3.49 9.81L3.49 9.81Q3.99 10.22 4.76 10.22L4.76 10.22L4.76 10.67L0.67 10.67L0.67 10.22L0.67 10.22Q1.44 10.22 1.94 9.81L1.94 9.81L1.94 9.81Q2.44 9.41 2.44 8.76L2.44 8.76L2.44 2.79L2.44 2.79Q2.44 2.63 2.41 2.56L2.41 2.56L2.41 2.56Q2.38 2.49 2.28 2.35L2.28 2.35L1.72 1.51L1.72 1.51Q1.58 1.30 1.41 1.23L1.41 1.23L1.41 1.23Q1.25 1.15 0.92 1.15L0.92 1.15L0.67 1.15L0.67 0.70L3.78 0.70L8.26 7.10L8.26 2.60L8.26 2.60Q8.26 1.96 7.76 1.55L7.76 1.55L7.76 1.55Q7.27 1.15 6.50 1.15L6.50 1.15L6.50 0.70L10.58 0.70L10.58 1.15L10.58 1.15Q9.81 1.15 9.32 1.55L9.32 1.55L9.32 1.55Q8.82 1.96 8.82 2.60L8.82 2.60L8.82 10.92L8.29 10.92ZM11.56 10.67L11.56 10.22L12.54 10.22L12.54 10.22Q12.74 10.22 12.81 10.14L12.81 10.14L12.81 10.14Q12.88 10.07 12.88 9.88L12.88 9.88L12.88 1.48L12.88 1.48Q12.88 1.29 12.81 1.22L12.81 1.22L12.81 1.22Q12.74 1.15 12.54 1.15L12.54 1.15L11.56 1.15L11.56 0.70L19.46 0.70L19.57 4.54L19.12 4.54L19.12 4.54Q19.12 4.42 18.98 3.78L18.98 3.78L18.98 3.78Q18.84 3.14 18.62 2.67L18.62 2.67L18.62 2.67Q18.33 2.04 17.83 1.60L17.83 1.60L17.83 1.60Q17.33 1.15 16.72 1.15L16.72 1.15L15.29 1.15L15.29 1.15Q15.11 1.15 15.03 1.22L15.03 1.22L15.03 1.22Q14.95 1.29 14.95 1.48L14.95 1.48L14.95 5.35L15.67 5.35L15.67 5.35Q16.04 5.35 16.37 5.04L16.37 5.04L16.37 5.04Q16.69 4.73 16.88 4.28L16.88 4.28L16.88 4.28Q17.07 3.82 17.07 3.42L17.07 3.42L17.51 3.42L17.51 7.80L17.07 7.80L17.07 7.80Q17.07 7.38 16.88 6.92L16.88 6.92L16.88 6.92Q16.69 6.47 16.37 6.16L16.37 6.16L16.37 6.16Q16.04 5.85 15.67 5.85L15.67 5.85L14.95 5.85L14.95 9.88L14.95 9.88Q14.95 10.07 15.03 10.14L15.03 10.14L15.03 10.14Q15.11 10.22 15.29 10.22L15.29 10.22L16.56 10.22L16.56 10.67L11.56 10.67ZM22.12 10.84L22.12 10.84Q21.35 10.84 20.81 10.46L20.81 10.46L20.81 10.46Q20.27 10.08 20.27 9.18L20.27 9.18L20.27 9.18Q20.27 8.27 20.94 7.75L20.94 7.75L20.94 7.75Q21.60 7.22 22.62 6.87L22.62 6.87L23.66 6.51L23.66 5.56L23.66 5.56Q23.66 4.84 23.37 4.52L23.37 4.52L23.37 4.52Q23.07 4.20 22.61 4.20L22.61 4.20L22.61 4.20Q22.22 4.20 21.93 4.38L21.93 4.38L21.93 4.38Q21.64 4.55 21.64 4.86L21.64 4.86L21.64 4.86Q21.64 4.94 21.69 5.06L21.69 5.06L21.69 5.06Q21.74 5.18 21.87 5.26L21.87 5.26L21.87 5.26Q22.08 5.39 22.17 5.53L22.17 5.53L22.17 5.53Q22.26 5.67 22.26 5.89L22.26 5.89L22.26 5.89Q22.26 6.23 22.02 6.42L22.02 6.42L22.02 6.42Q21.77 6.61 21.48 6.61L21.48 6.61L21.48 6.61Q21.11 6.61 20.85 6.36L20.85 6.36L20.85 6.36Q20.59 6.12 20.59 5.66L20.59 5.66L20.59 5.66Q20.59 5.12 20.92 4.71L20.92 4.71L20.92 4.71Q21.24 4.30 21.74 4.08L21.74 4.08L21.74 4.08Q22.25 3.86 22.76 3.86L22.76 3.86L22.76 3.86Q23.77 3.86 24.53 4.40L24.53 4.40L24.53 4.40Q25.28 4.94 25.28 6.12L25.28 6.12L25.28 9.66L25.28 9.66Q25.28 10.16 25.56 10.16L25.56 10.16L25.56 10.16Q25.82 10.16 25.94 9.74L25.94 9.74L25.94 9.74Q26.07 9.32 26.07 8.78L26.07 8.78L26.46 8.78L26.46 8.78Q26.46 9.80 26.15 10.28L26.15 10.28L26.15 10.28Q26.00 10.53 25.72 10.68L25.72 10.68L25.72 10.68Q25.44 10.84 25.07 10.84L25.07 10.84L25.07 10.84Q24.50 10.84 24.21 10.66L24.21 10.66L24.21 10.66Q23.91 10.49 23.72 10.08L23.72 10.08L23.69 10.08L23.69 10.08Q23.13 10.84 22.12 10.84L22.12 10.84ZM22.81 10.28L22.81 10.28Q23.35 10.28 23.66 9.66L23.66 9.66L23.66 6.89L22.88 7.17L22.88 7.17Q22.41 7.34 22.20 7.81L22.20 7.81L22.20 7.81Q21.98 8.27 21.98 9.06L21.98 9.06L21.98 9.06Q21.98 9.74 22.23 10.01L22.23 10.01L22.23 10.01Q22.48 10.28 22.81 10.28L22.81 10.28ZM27.55 10.84L27.55 8.06L27.86 8.06L28.49 9.17L28.49 9.17Q29.25 10.50 30.39 10.50L30.39 10.50L30.39 10.50Q30.91 10.50 31.16 10.24L31.16 10.24L31.16 10.24Q31.42 9.98 31.42 9.66L31.42 9.66L31.42 9.66Q31.42 9.38 31.27 9.18L31.27 9.18L31.27 9.18Q31.12 8.97 30.77 8.76L30.77 8.76L30.77 8.76Q30.41 8.54 29.67 8.18L29.67 8.18L29.67 8.18Q28.77 7.74 28.16 7.20L28.16 7.20L28.16 7.20Q27.55 6.65 27.55 5.77L27.55 5.77L27.55 5.77Q27.55 4.90 28.10 4.38L28.10 4.38L28.10 4.38Q28.64 3.86 29.43 3.86L29.43 3.86L29.43 3.86Q30.09 3.86 30.83 4.34L30.83 4.34L30.83 4.34Q31.09 4.51 31.25 4.51L31.25 4.51L31.25 4.51Q31.42 4.51 31.47 4.28L31.47 4.28L31.56 4.00L31.81 4.00L31.81 6.24L31.50 6.24L31.23 5.71L31.23 5.71Q30.86 4.96 30.37 4.58L30.37 4.58L30.37 4.58Q29.88 4.20 29.37 4.20L29.37 4.20L29.37 4.20Q28.99 4.20 28.75 4.38L28.75 4.38L28.75 4.38Q28.50 4.56 28.50 4.97L28.50 4.97L28.50 4.97Q28.50 5.80 29.99 6.50L29.99 6.50L29.99 6.50Q30.90 6.93 31.38 7.27L31.38 7.27L31.38 7.27Q31.86 7.60 32.09 7.99L32.09 7.99L32.09 7.99Q32.31 8.39 32.31 8.96L32.31 8.96L32.31 8.96Q32.31 9.83 31.76 10.33L31.76 10.33L31.76 10.33Q31.21 10.84 30.38 10.84L30.38 10.84L30.38 10.84Q29.68 10.84 28.92 10.39L28.92 10.39L28.92 10.39Q28.59 10.16 28.42 10.16L28.42 10.16L28.42 10.16Q28.24 10.16 28.10 10.27L28.10 10.27L28.10 10.27Q27.96 10.37 27.90 10.54L27.90 10.54L27.80 10.84L27.55 10.84ZM33.12 10.67L33.12 10.33L33.91 10.33L33.91 10.33Q34.03 10.33 34.08 10.28L34.08 10.28L34.08 10.28Q34.13 10.23 34.13 10.11L34.13 10.11L34.13 1.26L34.13 1.26Q34.13 1.13 34.08 1.09L34.08 1.09L34.08 1.09Q34.03 1.04 33.91 1.04L33.91 1.04L33.12 1.04L33.12 0.70L35.76 0.70L35.76 5.28L35.83 5.29L35.83 5.29Q36.11 4.63 36.55 4.25L36.55 4.25L36.55 4.25Q36.99 3.86 37.56 3.86L37.56 3.86L37.56 3.86Q37.91 3.86 38.16 3.94L38.16 3.94L38.16 3.94Q38.42 4.02 38.64 4.17L38.64 4.17L38.64 4.17Q38.99 4.42 39.19 4.87L39.19 4.87L39.19 4.87Q39.40 5.32 39.40 5.80L39.40 5.80L39.40 10.11L39.40 10.11Q39.40 10.23 39.45 10.28L39.45 10.28L39.45 10.28Q39.49 10.33 39.62 10.33L39.62 10.33L40.15 10.33L40.15 10.67L37.10 10.67L37.10 10.33L37.55 10.33L37.55 10.33Q37.67 10.33 37.72 10.28L37.72 10.28L37.72 10.28Q37.77 10.23 37.77 10.11L37.77 10.11L37.77 5.39L37.77 5.39Q37.77 4.31 37.13 4.31L37.13 4.31L37.13 4.31Q36.83 4.31 36.51 4.70L36.51 4.70L36.51 4.70Q36.19 5.10 35.97 5.74L35.97 5.74L35.97 5.74Q35.76 6.38 35.76 7.11L35.76 7.11L35.76 10.11L35.76 10.11Q35.76 10.23 35.81 10.28L35.81 10.28L35.81 10.28Q35.85 10.33 35.98 10.33L35.98 10.33L36.43 10.33L36.43 10.67L33.12 10.67ZM42.67 2.60L42.67 2.60Q42.24 2.60 41.94 2.30L41.94 2.30L41.94 2.30Q41.64 2.00 41.64 1.57L41.64 1.57L41.64 1.57Q41.64 1.12 41.94 0.83L41.94 0.83L41.94 0.83Q42.24 0.53 42.67 0.53L42.67 0.53L42.67 0.53Q43.12 0.53 43.41 0.83L43.41 0.83L43.41 0.83Q43.71 1.12 43.71 1.57L43.71 1.57L43.71 1.57Q43.71 2.00 43.41 2.30L43.41 2.30L43.41 2.30Q43.12 2.60 42.67 2.60L42.67 2.60ZM41.16 10.67L41.16 10.33L41.69 10.33L41.69 10.33Q41.82 10.33 41.87 10.28L41.87 10.28L41.87 10.28Q41.92 10.23 41.92 10.11L41.92 10.11L41.92 4.59L41.92 4.59Q41.92 4.47 41.87 4.42L41.87 4.42L41.87 4.42Q41.82 4.37 41.69 4.37L41.69 4.37L41.16 4.37L41.16 4.03L43.54 4.03L43.54 10.11L43.54 10.11Q43.54 10.23 43.59 10.28L43.59 10.28L43.59 10.28Q43.64 10.33 43.76 10.33L43.76 10.33L44.30 10.33L44.30 10.67L41.16 10.67ZM48.27 10.84L48.27 10.84Q47.52 10.84 46.86 10.38L46.86 10.38L46.86 10.38Q46.20 9.93 45.81 9.13L45.81 9.13L45.81 9.13Q45.42 8.33 45.42 7.35L45.42 7.35L45.42 7.35Q45.42 6.37 45.81 5.57L45.81 5.57L45.81 5.57Q46.20 4.77 46.86 4.32L46.86 4.32L46.86 4.32Q47.52 3.86 48.27 3.86L48.27 3.86L48.27 3.86Q49.03 3.86 49.69 4.32L49.69 4.32L49.69 4.32Q50.34 4.77 50.74 5.57L50.74 5.57L50.74 5.57Q51.13 6.37 51.13 7.35L51.13 7.35L51.13 7.35Q51.13 8.33 50.74 9.13L50.74 9.13L50.74 9.13Q50.34 9.93 49.69 10.38L49.69 10.38L49.69 10.38Q49.03 10.84 48.27 10.84L48.27 10.84ZM48.27 10.50L48.27 10.50Q48.87 10.50 49.11 9.76L49.11 9.76L49.11 9.76Q49.34 9.02 49.34 7.35L49.34 7.35L49.34 7.35Q49.34 5.68 49.11 4.94L49.11 4.94L49.11 4.94Q48.87 4.20 48.27 4.20L48.27 4.20L48.27 4.20Q47.67 4.20 47.44 4.94L47.44 4.94L47.44 4.94Q47.21 5.68 47.21 7.35L47.21 7.35L47.21 7.35Q47.21 9.02 47.44 9.76L47.44 9.76L47.44 9.76Q47.67 10.50 48.27 10.50L48.27 10.50ZM52.36 10.67L52.36 10.33L52.89 10.33L52.89 10.33Q53.02 10.33 53.07 10.28L53.07 10.28L53.07 10.28Q53.12 10.23 53.12 10.11L53.12 10.11L53.12 4.59L53.12 4.59Q53.12 4.47 53.07 4.42L53.07 4.42L53.07 4.42Q53.02 4.37 52.89 4.37L52.89 4.37L52.36 4.37L52.36 4.03L54.74 4.03L54.74 5.28L54.81 5.29L54.81 5.29Q55.09 4.63 55.53 4.25L55.53 4.25L55.53 4.25Q55.97 3.86 56.55 3.86L56.55 3.86L56.55 3.86Q56.90 3.86 57.15 3.94L57.15 3.94L57.15 3.94Q57.40 4.02 57.62 4.17L57.62 4.17L57.62 4.17Q57.97 4.42 58.18 4.87L58.18 4.87L58.18 4.87Q58.38 5.32 58.38 5.80L58.38 5.80L58.38 10.11L58.38 10.11Q58.38 10.23 58.43 10.28L58.43 10.28L58.43 10.28Q58.48 10.33 58.60 10.33L58.60 10.33L59.14 10.33L59.14 10.67L56.08 10.67L56.08 10.33L56.53 10.33L56.53 10.33Q56.66 10.33 56.71 10.28L56.71 10.28L56.71 10.28Q56.76 10.23 56.76 10.11L56.76 10.11L56.76 5.39L56.76 5.39Q56.76 4.31 56.11 4.31L56.11 4.31L56.11 4.31Q55.82 4.31 55.50 4.70L55.50 4.70L55.50 4.70Q55.17 5.10 54.96 5.74L54.96 5.74L54.96 5.74Q54.74 6.38 54.74 7.11L54.74 7.11L54.74 10.11L54.74 10.11Q54.74 10.23 54.79 10.28L54.79 10.28L54.79 10.28Q54.84 10.33 54.96 10.33L54.96 10.33L55.41 10.33L55.41 10.67L52.36 10.67Z"></path></g><defs data-v-fde0c5aa=""><!----></defs><g data-v-fde0c5aa="" id="572e949a-a516-4b00-932a-bd79580d78e7" stroke="none" fill="#ffffff" transform="matrix(0.6225446795357555,0,0,0.6225446795357555,31.9175025490779,118.93097284883258)"><g clip-rule="evenodd"><path d="M12.983 10.59l17.018 88.223-5.872-59.049 29.021-1.892-.054-9.883L64.549 1 53.622 18.977z"></path><path d="M59.389 54.548l5.16-53.541-8.74 39.716-19.612 1.045 1.57 20.462-7.766 36.583 12.057-39.899z"></path><path d="M62.8 67.182l.549-10.453-15.979 3.755-.032 11.797-17.337 26.532 21.68-27.616zM65.711 62.394l14.841-4.731 1.509-12.532-15.899 2.095zM72.07 44.502l10.988-1.417 1.581-10.278-8.079-.373L64.549 1l8.43 30.967z"></path><path d="M87.413 31.294l1.256-9.506-9.544-2.694L64.549 1l14.483 22.437-.422 7z"></path></g></g><defs data-v-fde0c5aa=""><!----></defs><g data-v-fde0c5aa="" id="5a195b3c-3b78-453b-b861-7519344b07ac" fill="#ffffff" transform="matrix(0.4010889749760612,0,0,0.4010889749760612,99.35985659651757,162.30820988914297)"><path d="M11.06 7.46L11.06 7.46L11.06 7.46Q11.06 8.33 10.58 9.01L10.58 9.01L10.58 9.01Q10.11 9.69 9.28 10.14L9.28 10.14L9.28 10.14Q9.81 10.50 10.13 11.03L10.13 11.03L10.13 11.03Q10.44 11.55 10.44 12.18L10.44 12.18L10.44 12.18Q10.44 12.94 9.99 13.67L9.99 13.67L9.99 13.67Q9.53 14.41 8.78 14.97L8.78 14.97L8.78 14.97Q8.02 15.54 7.06 15.89L7.06 15.89L7.06 15.89Q6.09 16.24 5.08 16.24L5.08 16.24L5.08 16.24Q3.99 16.24 3.17 15.83L3.17 15.83L3.17 15.83Q2.35 15.41 1.89 14.66L1.89 14.66L1.89 14.66Q2.03 14.24 2.26 13.62L2.26 13.62L2.26 13.62Q2.49 12.99 2.77 12.30L2.77 12.30L2.77 12.30Q3.05 11.61 3.34 10.92L3.34 10.92L3.34 10.92Q3.63 10.23 3.88 9.69L3.88 9.69L3.88 9.69Q4.41 8.50 4.83 7.71L4.83 7.71L4.83 7.71Q5.25 6.93 5.60 6.47L5.60 6.47L5.60 6.47Q4.83 6.71 4.20 7.01L4.20 7.01L4.20 7.01Q3.57 7.31 3.28 7.59L3.28 7.59L3.28 7.59Q3.15 7.50 3.02 7.34L3.02 7.34L3.02 7.34Q2.88 7.17 2.77 6.96L2.77 6.96L2.77 6.96Q2.65 6.76 2.57 6.55L2.57 6.55L2.57 6.55Q2.49 6.34 2.48 6.17L2.48 6.17L2.48 6.17Q2.84 5.92 3.42 5.69L3.42 5.69L3.42 5.69Q4.00 5.46 4.69 5.29L4.69 5.29L4.69 5.29Q5.38 5.12 6.10 5.03L6.10 5.03L6.10 5.03Q6.82 4.93 7.48 4.93L7.48 4.93L7.48 4.93Q9.16 4.93 10.11 5.60L10.11 5.60L10.11 5.60Q11.06 6.27 11.06 7.46ZM5.73 10.81L5.73 10.81L5.73 10.81Q5.46 10.68 5.24 10.43L5.24 10.43L5.24 10.43Q4.91 11.14 4.63 11.83L4.63 11.83L4.63 11.83Q4.34 12.52 4.12 13.10L4.12 13.10L4.12 13.10Q3.89 13.69 3.75 14.13L3.75 14.13L3.75 14.13Q3.61 14.56 3.60 14.76L3.60 14.76L3.60 14.76Q3.79 14.87 4.07 14.92L4.07 14.92L4.07 14.92Q4.34 14.98 4.75 14.98L4.75 14.98L4.75 14.98Q5.70 14.98 6.57 14.71L6.57 14.71L6.57 14.71Q7.43 14.45 8.09 13.99L8.09 13.99L8.09 13.99Q8.75 13.54 9.14 12.95L9.14 12.95L9.14 12.95Q9.53 12.36 9.53 11.72L9.53 11.72L9.53 11.72Q9.53 10.79 8.74 10.39L8.74 10.39L8.74 10.39Q7.64 10.84 6.27 10.84L6.27 10.84L6.27 10.84Q6.08 10.84 5.97 10.84L5.97 10.84L5.97 10.84Q5.87 10.84 5.73 10.81ZM8.44 5.95L8.44 5.95L8.44 5.95Q8.15 5.95 7.82 5.98L7.82 5.98L7.82 5.98Q7.49 6.02 7.13 6.09L7.13 6.09L7.13 6.09Q7.18 6.15 7.22 6.21L7.22 6.21L7.22 6.21Q7.25 6.27 7.28 6.34L7.28 6.34L7.28 6.34Q7.15 6.51 6.97 6.83L6.97 6.83L6.97 6.83Q6.79 7.15 6.57 7.58L6.57 7.58L6.57 7.58Q6.34 8.01 6.10 8.53L6.10 8.53L6.10 8.53Q5.85 9.04 5.60 9.59L5.60 9.59L5.60 9.59Q5.84 9.53 6.18 9.50L6.18 9.50L6.18 9.50Q6.52 9.46 6.86 9.46L6.86 9.46L6.86 9.46Q7.04 9.46 7.22 9.48L7.22 9.48L7.22 9.48Q7.39 9.49 7.56 9.52L7.56 9.52L7.56 9.52Q8.23 9.41 8.77 9.19L8.77 9.19L8.77 9.19Q9.31 8.97 9.70 8.69L9.70 8.69L9.70 8.69Q10.09 8.40 10.30 8.05L10.30 8.05L10.30 8.05Q10.51 7.70 10.51 7.31L10.51 7.31L10.51 7.31Q10.51 6.64 9.98 6.29L9.98 6.29L9.98 6.29Q9.45 5.95 8.44 5.95ZM24.19 9.21L24.19 9.21L24.19 9.21Q24.65 9.21 24.91 9.46L24.91 9.46L24.91 9.46Q25.17 9.72 25.17 10.16L25.17 10.16L25.17 10.16Q25.17 10.28 25.15 10.39L25.15 10.39L25.15 10.39Q25.13 10.51 25.10 10.60L25.10 10.60L25.10 10.60Q24.92 10.57 24.70 10.55L24.70 10.55L24.70 10.55Q24.47 10.53 24.16 10.53L24.16 10.53L24.16 10.53Q23.56 10.53 22.95 10.63L22.95 10.63L22.95 10.63Q22.33 10.74 21.77 10.81L21.77 10.81L21.77 10.81Q21.45 11.55 21.18 12.24L21.18 12.24L21.18 12.24Q20.92 12.94 20.73 13.51L20.73 13.51L20.73 13.51Q20.54 14.08 20.43 14.50L20.43 14.50L20.43 14.50Q20.33 14.92 20.31 15.13L20.31 15.13L20.31 15.13Q21.45 14.90 22.60 14.73L22.60 14.73L22.60 14.73Q23.76 14.56 25.03 14.48L25.03 14.48L25.03 14.48Q25.19 14.71 25.29 14.99L25.29 14.99L25.29 14.99Q25.40 15.27 25.40 15.60L25.40 15.60L25.40 15.60Q25.40 15.68 25.40 15.78L25.40 15.78L25.40 15.78Q25.40 15.88 25.37 15.97L25.37 15.97L25.37 15.97Q24.98 15.96 24.54 15.95L24.54 15.95L24.54 15.95Q24.11 15.95 23.41 15.95L23.41 15.95L23.41 15.95Q22.95 15.95 22.53 15.97L22.53 15.97L22.53 15.97Q22.12 15.99 21.70 16.03L21.70 16.03L21.70 16.03Q21.28 16.07 20.81 16.14L20.81 16.14L20.81 16.14Q20.34 16.21 19.75 16.31L19.75 16.31L19.75 16.31Q19.11 16.06 18.51 15.08L18.51 15.08L18.51 15.08Q18.75 14.57 19.17 13.54L19.17 13.54L19.17 13.54Q19.60 12.52 20.26 10.79L20.26 10.79L20.26 10.79Q19.63 10.60 19.43 10.09L19.43 10.09L19.43 10.09Q19.50 10.02 19.84 9.92L19.84 9.92L19.84 9.92Q20.17 9.81 20.66 9.70L20.66 9.70L20.66 9.70Q20.87 9.16 21.02 8.75L21.02 8.75L21.02 8.75Q21.17 8.34 21.28 7.99L21.28 7.99L21.28 7.99Q21.39 7.63 21.48 7.29L21.48 7.29L21.48 7.29Q21.57 6.94 21.66 6.54L21.66 6.54L21.66 6.54Q21.17 6.51 20.89 6.27L20.89 6.27L20.89 6.27Q20.61 6.02 20.61 5.63L20.61 5.63L20.61 5.63Q20.61 5.52 20.64 5.36L20.64 5.36L20.64 5.36Q20.68 5.21 20.72 5.10L20.72 5.10L20.72 5.10Q21.00 5.14 21.26 5.15L21.26 5.15L21.26 5.15Q21.52 5.17 21.94 5.17L21.94 5.17L21.94 5.17Q22.82 5.17 23.59 5.12L23.59 5.12L23.59 5.12Q24.36 5.07 24.98 5.01L24.98 5.01L24.98 5.01Q25.61 4.96 26.05 4.91L26.05 4.91L26.05 4.91Q26.50 4.86 26.74 4.86L26.74 4.86L26.74 4.86Q27.06 4.86 27.31 5.19L27.31 5.19L27.31 5.19Q27.57 5.53 27.69 6.15L27.69 6.15L27.69 6.15Q27.26 6.10 26.99 6.09L26.99 6.09L26.99 6.09Q26.71 6.08 26.50 6.08L26.50 6.08L26.50 6.08Q25.73 6.08 25.10 6.15L25.10 6.15L25.10 6.15Q24.46 6.23 23.87 6.31L23.87 6.31L23.87 6.31Q23.79 6.44 23.68 6.64L23.68 6.64L23.68 6.64Q23.58 6.83 23.41 7.18L23.41 7.18L23.41 7.18Q23.24 7.53 23.00 8.06L23.00 8.06L23.00 8.06Q22.75 8.60 22.40 9.39L22.40 9.39L22.40 9.39Q22.93 9.31 23.40 9.26L23.40 9.26L23.40 9.26Q23.87 9.21 24.19 9.21ZM44.84 12.43L44.84 12.43L44.84 12.43Q44.84 11.45 45.07 10.51L45.07 10.51L45.07 10.51Q45.30 9.56 45.72 8.71L45.72 8.71L45.72 8.71Q46.14 7.87 46.73 7.16L46.73 7.16L46.73 7.16Q47.31 6.45 48.00 5.94L48.00 5.94L48.00 5.94Q48.69 5.42 49.48 5.13L49.48 5.13L49.48 5.13Q50.26 4.84 51.09 4.84L51.09 4.84L51.09 4.84Q52.05 4.84 52.59 5.25L52.59 5.25L52.59 5.25Q53.13 5.66 53.13 6.38L53.13 6.38L53.13 6.38Q53.13 6.66 53.05 6.96L53.05 6.96L53.05 6.96Q52.98 7.25 52.83 7.54L52.83 7.54L52.83 7.54Q52.68 7.83 52.49 8.09L52.49 8.09L52.49 8.09Q52.29 8.36 52.05 8.55L52.05 8.55L52.05 8.55Q51.69 8.50 51.42 8.22L51.42 8.22L51.42 8.22Q51.16 7.95 51.09 7.59L51.09 7.59L51.09 7.59Q51.58 7.18 51.86 6.74L51.86 6.74L51.86 6.74Q52.15 6.30 52.15 5.94L52.15 5.94L52.15 5.94Q52.15 5.32 51.38 5.32L51.38 5.32L51.38 5.32Q51.06 5.32 50.72 5.45L50.72 5.45L50.72 5.45Q50.37 5.59 50.02 5.82L50.02 5.82L50.02 5.82Q49.67 6.06 49.34 6.40L49.34 6.40L49.34 6.40Q49.01 6.73 48.73 7.14L48.73 7.14L48.73 7.14Q46.79 9.94 46.79 12.87L46.79 12.87L46.79 12.87Q46.79 13.90 47.11 14.53L47.11 14.53L47.11 14.53Q47.43 15.16 47.96 15.27L47.96 15.27L47.96 15.27Q48.57 15.13 49.49 14.50L49.49 14.50L49.49 14.50Q50.41 13.87 51.51 12.87L51.51 12.87L51.51 12.87Q51.65 13.01 51.67 13.16L51.67 13.16L51.67 13.16Q51.27 13.69 50.83 14.18L50.83 14.18L50.83 14.18Q50.40 14.67 49.97 15.08L49.97 15.08L49.97 15.08Q49.55 15.48 49.13 15.79L49.13 15.79L49.13 15.79Q48.72 16.10 48.37 16.27L48.37 16.27L48.37 16.27Q46.63 16.24 45.74 15.27L45.74 15.27L45.74 15.27Q44.84 14.31 44.84 12.43ZM66.18 4.98L66.18 4.98L66.18 4.98Q66.44 5.10 66.72 5.27L66.72 5.27L66.72 5.27Q67.00 5.45 67.24 5.63L67.24 5.63L67.24 5.63Q67.48 5.81 67.64 5.98L67.64 5.98L67.64 5.98Q67.80 6.16 67.82 6.27L67.82 6.27L67.82 6.27Q67.58 6.22 67.34 6.20L67.34 6.20L67.34 6.20Q67.10 6.17 66.91 6.17L66.91 6.17L66.91 6.17Q66.28 6.17 65.65 6.48L65.65 6.48L65.65 6.48Q65.03 6.79 64.47 7.32L64.47 7.32L64.47 7.32Q63.91 7.85 63.43 8.57L63.43 8.57L63.43 8.57Q62.96 9.28 62.62 10.09L62.62 10.09L62.62 10.09Q62.27 10.91 62.08 11.77L62.08 11.77L62.08 11.77Q61.88 12.64 61.88 13.48L61.88 13.48L61.88 13.48Q61.88 14.57 62.24 15.11L62.24 15.11L62.24 15.11Q62.61 15.64 63.31 15.64L63.31 15.64L63.31 15.64Q63.64 15.64 64.04 15.51L64.04 15.51L64.04 15.51Q64.43 15.37 64.83 15.13L64.83 15.13L64.83 15.13Q65.24 14.90 65.63 14.56L65.63 14.56L65.63 14.56Q66.02 14.22 66.36 13.82L66.36 13.82L66.36 13.82Q66.85 13.23 67.24 12.48L67.24 12.48L67.24 12.48Q67.63 11.73 67.91 10.89L67.91 10.89L67.91 10.89Q68.18 10.05 68.33 9.16L68.33 9.16L68.33 9.16Q68.47 8.27 68.47 7.42L68.47 7.42L68.47 7.42Q68.47 7.08 68.46 6.85L68.46 6.85L68.46 6.85Q68.45 6.62 68.42 6.46L68.42 6.46L68.42 6.46Q68.40 6.30 68.39 6.20L68.39 6.20L68.39 6.20Q68.38 6.10 68.36 6.03L68.36 6.03L68.36 6.03Q68.53 6.12 68.73 6.24L68.73 6.24L68.73 6.24Q68.94 6.36 69.11 6.59L69.11 6.59L69.11 6.59Q69.29 6.82 69.41 7.20L69.41 7.20L69.41 7.20Q69.52 7.57 69.52 8.18L69.52 8.18L69.52 8.18Q69.52 9.16 69.29 10.10L69.29 10.10L69.29 10.10Q69.06 11.05 68.65 11.90L68.65 11.90L68.65 11.90Q68.24 12.75 67.68 13.50L67.68 13.50L67.68 13.50Q67.12 14.24 66.47 14.80L66.47 14.80L66.47 14.80Q65.63 15.54 64.68 15.95L64.68 15.95L64.68 15.95Q63.73 16.35 62.85 16.35L62.85 16.35L62.85 16.35Q61.56 16.35 60.88 15.53L60.88 15.53L60.88 15.53Q60.20 14.71 60.20 13.12L60.20 13.12L60.20 13.12Q60.20 12.26 60.39 11.31L60.39 11.31L60.39 11.31Q60.58 10.36 60.92 9.44L60.92 9.44L60.92 9.44Q61.26 8.51 61.74 7.68L61.74 7.68L61.74 7.68Q62.22 6.85 62.78 6.21L62.78 6.21L62.78 6.21Q63.35 5.57 64.00 5.19L64.00 5.19L64.00 5.19Q64.65 4.82 65.34 4.82L65.34 4.82L65.34 4.82Q65.56 4.82 65.76 4.85L65.76 4.85L65.76 4.85Q65.95 4.89 66.18 4.98ZM83.30 4.98L83.30 4.98L83.30 4.98Q83.57 5.10 83.85 5.27L83.85 5.27L83.85 5.27Q84.13 5.45 84.36 5.63L84.36 5.63L84.36 5.63Q84.60 5.81 84.76 5.98L84.76 5.98L84.76 5.98Q84.92 6.16 84.94 6.27L84.94 6.27L84.94 6.27Q84.70 6.22 84.46 6.20L84.46 6.20L84.46 6.20Q84.22 6.17 84.03 6.17L84.03 6.17L84.03 6.17Q83.40 6.17 82.78 6.48L82.78 6.48L82.78 6.48Q82.15 6.79 81.59 7.32L81.59 7.32L81.59 7.32Q81.03 7.85 80.56 8.57L80.56 8.57L80.56 8.57Q80.08 9.28 79.74 10.09L79.74 10.09L79.74 10.09Q79.39 10.91 79.20 11.77L79.20 11.77L79.20 11.77Q79.00 12.64 79.00 13.48L79.00 13.48L79.00 13.48Q79.00 14.57 79.37 15.11L79.37 15.11L79.37 15.11Q79.73 15.64 80.43 15.64L80.43 15.64L80.43 15.64Q80.77 15.64 81.16 15.51L81.16 15.51L81.16 15.51Q81.55 15.37 81.96 15.13L81.96 15.13L81.96 15.13Q82.36 14.90 82.75 14.56L82.75 14.56L82.75 14.56Q83.15 14.22 83.48 13.82L83.48 13.82L83.48 13.82Q83.97 13.23 84.36 12.48L84.36 12.48L84.36 12.48Q84.76 11.73 85.03 10.89L85.03 10.89L85.03 10.89Q85.30 10.05 85.45 9.16L85.45 9.16L85.45 9.16Q85.60 8.27 85.60 7.42L85.60 7.42L85.60 7.42Q85.60 7.08 85.58 6.85L85.58 6.85L85.58 6.85Q85.57 6.62 85.55 6.46L85.55 6.46L85.55 6.46Q85.53 6.30 85.51 6.20L85.51 6.20L85.51 6.20Q85.50 6.10 85.48 6.03L85.48 6.03L85.48 6.03Q85.65 6.12 85.86 6.24L85.86 6.24L85.86 6.24Q86.06 6.36 86.23 6.59L86.23 6.59L86.23 6.59Q86.41 6.82 86.53 7.20L86.53 7.20L86.53 7.20Q86.65 7.57 86.65 8.18L86.65 8.18L86.65 8.18Q86.65 9.16 86.42 10.10L86.42 10.10L86.42 10.10Q86.18 11.05 85.77 11.90L85.77 11.90L85.77 11.90Q85.36 12.75 84.80 13.50L84.80 13.50L84.80 13.50Q84.24 14.24 83.59 14.80L83.59 14.80L83.59 14.80Q82.75 15.54 81.80 15.95L81.80 15.95L81.80 15.95Q80.85 16.35 79.97 16.35L79.97 16.35L79.97 16.35Q78.68 16.35 78.00 15.53L78.00 15.53L78.00 15.53Q77.32 14.71 77.32 13.12L77.32 13.12L77.32 13.12Q77.32 12.26 77.51 11.31L77.51 11.31L77.51 11.31Q77.70 10.36 78.04 9.44L78.04 9.44L78.04 9.44Q78.39 8.51 78.86 7.68L78.86 7.68L78.86 7.68Q79.34 6.85 79.91 6.21L79.91 6.21L79.91 6.21Q80.47 5.57 81.12 5.19L81.12 5.19L81.12 5.19Q81.77 4.82 82.46 4.82L82.46 4.82L82.46 4.82Q82.68 4.82 82.88 4.85L82.88 4.85L82.88 4.85Q83.08 4.89 83.30 4.98ZM99.18 14.38L99.18 14.38L99.18 14.38Q99.53 14.98 99.53 15.54L99.53 15.54L99.53 15.54Q99.53 15.67 99.50 15.77L99.50 15.77L99.50 15.77Q99.48 15.88 99.46 15.99L99.46 15.99L99.46 15.99Q99.22 15.96 98.96 15.95L98.96 15.95L98.96 15.95Q98.70 15.93 98.42 15.93L98.42 15.93L98.42 15.93Q98.08 15.93 97.74 15.95L97.74 15.95L97.74 15.95Q97.40 15.97 96.98 16.02L96.98 16.02L96.98 16.02Q96.56 16.06 96.04 16.13L96.04 16.13L96.04 16.13Q95.52 16.20 94.84 16.31L94.84 16.31L94.84 16.31Q94.51 16.20 94.19 15.87L94.19 15.87L94.19 15.87Q93.87 15.54 93.59 15.08L93.59 15.08L93.59 15.08Q93.73 14.77 93.94 14.31L93.94 14.31L93.94 14.31Q94.15 13.86 94.43 13.21L94.43 13.21L94.43 13.21Q94.71 12.56 95.05 11.68L95.05 11.68L95.05 11.68Q95.40 10.81 95.79 9.66L95.79 9.66L95.79 9.66Q96.04 8.90 96.22 8.33L96.22 8.33L96.22 8.33Q96.40 7.76 96.55 7.22L96.55 7.22L96.55 7.22Q96.70 6.68 96.84 6.09L96.84 6.09L96.84 6.09Q96.98 5.50 97.15 4.73L97.15 4.73L97.15 4.73Q97.71 4.84 98.12 5.14L98.12 5.14L98.12 5.14Q98.53 5.45 98.91 6.01L98.91 6.01L98.91 6.01Q98.80 6.19 98.62 6.59L98.62 6.59L98.62 6.59Q98.43 7 98.19 7.58L98.19 7.58L98.19 7.58Q97.94 8.16 97.65 8.90L97.65 8.90L97.65 8.90Q97.36 9.63 97.03 10.47L97.03 10.47L97.03 10.47Q96.73 11.30 96.43 12.03L96.43 12.03L96.43 12.03Q96.14 12.75 95.91 13.34L95.91 13.34L95.91 13.34Q95.68 13.93 95.54 14.35L95.54 14.35L95.54 14.35Q95.40 14.77 95.40 14.98L95.40 14.98L95.40 14.98Q95.62 14.97 95.80 14.95L95.80 14.95L95.80 14.95Q95.98 14.94 96.18 14.90L96.18 14.90L96.18 14.90Q96.38 14.87 96.61 14.82L96.61 14.82L96.61 14.82Q96.84 14.77 97.16 14.69L97.16 14.69L97.16 14.69Q97.44 14.62 97.68 14.57L97.68 14.57L97.68 14.57Q97.92 14.52 98.15 14.48L98.15 14.48L98.15 14.48Q98.38 14.45 98.62 14.43L98.62 14.43L98.62 14.43Q98.87 14.41 99.18 14.38ZM106.79 17.54L106.79 17.54L106.79 17.54Q106.71 17.47 106.64 17.31L106.64 17.31L106.64 17.31Q106.57 17.15 106.57 17.01L106.57 17.01L106.57 17.01Q107.27 16.41 107.57 15.86L107.57 15.86L107.57 15.86Q107.87 15.32 107.87 14.67L107.87 14.67L107.87 14.67Q107.87 14.25 107.84 13.95L107.84 13.95L107.84 13.95Q107.80 13.65 107.70 13.26L107.70 13.26L107.70 13.26Q108.05 13.29 108.39 13.38L108.39 13.38L108.39 13.38Q108.74 13.47 109.01 13.60L109.01 13.60L109.01 13.60Q109.28 13.73 109.47 13.91L109.47 13.91L109.47 13.91Q109.65 14.08 109.69 14.25L109.69 14.25L109.69 14.25Q109.03 16.58 106.79 17.54ZM138.31 7.46L138.31 7.46L138.31 7.46Q138.31 8.33 137.83 9.01L137.83 9.01L137.83 9.01Q137.35 9.69 136.53 10.14L136.53 10.14L136.53 10.14Q137.06 10.50 137.38 11.03L137.38 11.03L137.38 11.03Q137.69 11.55 137.69 12.18L137.69 12.18L137.69 12.18Q137.69 12.94 137.23 13.67L137.23 13.67L137.23 13.67Q136.78 14.41 136.02 14.97L136.02 14.97L136.02 14.97Q135.27 15.54 134.30 15.89L134.30 15.89L134.30 15.89Q133.34 16.24 132.33 16.24L132.33 16.24L132.33 16.24Q131.24 16.24 130.42 15.83L130.42 15.83L130.42 15.83Q129.60 15.41 129.14 14.66L129.14 14.66L129.14 14.66Q129.28 14.24 129.51 13.62L129.51 13.62L129.51 13.62Q129.74 12.99 130.02 12.30L130.02 12.30L130.02 12.30Q130.30 11.61 130.59 10.92L130.59 10.92L130.59 10.92Q130.87 10.23 131.12 9.69L131.12 9.69L131.12 9.69Q131.66 8.50 132.08 7.71L132.08 7.71L132.08 7.71Q132.50 6.93 132.85 6.47L132.85 6.47L132.85 6.47Q132.08 6.71 131.45 7.01L131.45 7.01L131.45 7.01Q130.82 7.31 130.52 7.59L130.52 7.59L130.52 7.59Q130.40 7.50 130.26 7.34L130.26 7.34L130.26 7.34Q130.13 7.17 130.01 6.96L130.01 6.96L130.01 6.96Q129.89 6.76 129.81 6.55L129.81 6.55L129.81 6.55Q129.74 6.34 129.72 6.17L129.72 6.17L129.72 6.17Q130.09 5.92 130.67 5.69L130.67 5.69L130.67 5.69Q131.25 5.46 131.94 5.29L131.94 5.29L131.94 5.29Q132.62 5.12 133.34 5.03L133.34 5.03L133.34 5.03Q134.06 4.93 134.72 4.93L134.72 4.93L134.72 4.93Q136.40 4.93 137.35 5.60L137.35 5.60L137.35 5.60Q138.31 6.27 138.31 7.46ZM132.97 10.81L132.97 10.81L132.97 10.81Q132.71 10.68 132.48 10.43L132.48 10.43L132.48 10.43Q132.16 11.14 131.87 11.83L131.87 11.83L131.87 11.83Q131.59 12.52 131.36 13.10L131.36 13.10L131.36 13.10Q131.14 13.69 131.00 14.13L131.00 14.13L131.00 14.13Q130.86 14.56 130.84 14.76L130.84 14.76L130.84 14.76Q131.04 14.87 131.31 14.92L131.31 14.92L131.31 14.92Q131.59 14.98 131.99 14.98L131.99 14.98L131.99 14.98Q132.94 14.98 133.81 14.71L133.81 14.71L133.81 14.71Q134.68 14.45 135.34 13.99L135.34 13.99L135.34 13.99Q136.00 13.54 136.39 12.95L136.39 12.95L136.39 12.95Q136.78 12.36 136.78 11.72L136.78 11.72L136.78 11.72Q136.78 10.79 135.98 10.39L135.98 10.39L135.98 10.39Q134.89 10.84 133.52 10.84L133.52 10.84L133.52 10.84Q133.32 10.84 133.22 10.84L133.22 10.84L133.22 10.84Q133.11 10.84 132.97 10.81ZM135.69 5.95L135.69 5.95L135.69 5.95Q135.39 5.95 135.06 5.98L135.06 5.98L135.06 5.98Q134.74 6.02 134.37 6.09L134.37 6.09L134.37 6.09Q134.43 6.15 134.46 6.21L134.46 6.21L134.46 6.21Q134.50 6.27 134.53 6.34L134.53 6.34L134.53 6.34Q134.40 6.51 134.22 6.83L134.22 6.83L134.22 6.83Q134.04 7.15 133.81 7.58L133.81 7.58L133.81 7.58Q133.59 8.01 133.34 8.53L133.34 8.53L133.34 8.53Q133.10 9.04 132.85 9.59L132.85 9.59L132.85 9.59Q133.08 9.53 133.43 9.50L133.43 9.50L133.43 9.50Q133.77 9.46 134.11 9.46L134.11 9.46L134.11 9.46Q134.29 9.46 134.46 9.48L134.46 9.48L134.46 9.48Q134.64 9.49 134.81 9.52L134.81 9.52L134.81 9.52Q135.48 9.41 136.02 9.19L136.02 9.19L136.02 9.19Q136.56 8.97 136.95 8.69L136.95 8.69L136.95 8.69Q137.34 8.40 137.55 8.05L137.55 8.05L137.55 8.05Q137.76 7.70 137.76 7.31L137.76 7.31L137.76 7.31Q137.76 6.64 137.23 6.29L137.23 6.29L137.23 6.29Q136.70 5.95 135.69 5.95ZM151.44 9.21L151.44 9.21L151.44 9.21Q151.90 9.21 152.16 9.46L152.16 9.46L152.16 9.46Q152.42 9.72 152.42 10.16L152.42 10.16L152.42 10.16Q152.42 10.28 152.40 10.39L152.40 10.39L152.40 10.39Q152.38 10.51 152.35 10.60L152.35 10.60L152.35 10.60Q152.17 10.57 151.94 10.55L151.94 10.55L151.94 10.55Q151.72 10.53 151.41 10.53L151.41 10.53L151.41 10.53Q150.81 10.53 150.19 10.63L150.19 10.63L150.19 10.63Q149.58 10.74 149.02 10.81L149.02 10.81L149.02 10.81Q148.69 11.55 148.43 12.24L148.43 12.24L148.43 12.24Q148.16 12.94 147.97 13.51L147.97 13.51L147.97 13.51Q147.78 14.08 147.68 14.50L147.68 14.50L147.68 14.50Q147.57 14.92 147.56 15.13L147.56 15.13L147.56 15.13Q148.69 14.90 149.85 14.73L149.85 14.73L149.85 14.73Q151.00 14.56 152.28 14.48L152.28 14.48L152.28 14.48Q152.43 14.71 152.54 14.99L152.54 14.99L152.54 14.99Q152.64 15.27 152.64 15.60L152.64 15.60L152.64 15.60Q152.64 15.68 152.64 15.78L152.64 15.78L152.64 15.78Q152.64 15.88 152.61 15.97L152.61 15.97L152.61 15.97Q152.22 15.96 151.79 15.95L151.79 15.95L151.79 15.95Q151.35 15.95 150.65 15.95L150.65 15.95L150.65 15.95Q150.19 15.95 149.78 15.97L149.78 15.97L149.78 15.97Q149.37 15.99 148.95 16.03L148.95 16.03L148.95 16.03Q148.53 16.07 148.06 16.14L148.06 16.14L148.06 16.14Q147.59 16.21 147 16.31L147 16.31L147 16.31Q146.36 16.06 145.75 15.08L145.75 15.08L145.75 15.08Q145.99 14.57 146.42 13.54L146.42 13.54L146.42 13.54Q146.85 12.52 147.50 10.79L147.50 10.79L147.50 10.79Q146.87 10.60 146.68 10.09L146.68 10.09L146.68 10.09Q146.75 10.02 147.08 9.92L147.08 9.92L147.08 9.92Q147.42 9.81 147.91 9.70L147.91 9.70L147.91 9.70Q148.12 9.16 148.27 8.75L148.27 8.75L148.27 8.75Q148.41 8.34 148.53 7.99L148.53 7.99L148.53 7.99Q148.64 7.63 148.73 7.29L148.73 7.29L148.73 7.29Q148.82 6.94 148.90 6.54L148.90 6.54L148.90 6.54Q148.41 6.51 148.13 6.27L148.13 6.27L148.13 6.27Q147.85 6.02 147.85 5.63L147.85 5.63L147.85 5.63Q147.85 5.52 147.89 5.36L147.89 5.36L147.89 5.36Q147.92 5.21 147.97 5.10L147.97 5.10L147.97 5.10Q148.25 5.14 148.50 5.15L148.50 5.15L148.50 5.15Q148.76 5.17 149.18 5.17L149.18 5.17L149.18 5.17Q150.07 5.17 150.84 5.12L150.84 5.12L150.84 5.12Q151.61 5.07 152.23 5.01L152.23 5.01L152.23 5.01Q152.85 4.96 153.30 4.91L153.30 4.91L153.30 4.91Q153.75 4.86 153.99 4.86L153.99 4.86L153.99 4.86Q154.31 4.86 154.56 5.19L154.56 5.19L154.56 5.19Q154.81 5.53 154.94 6.15L154.94 6.15L154.94 6.15Q154.50 6.10 154.23 6.09L154.23 6.09L154.23 6.09Q153.96 6.08 153.75 6.08L153.75 6.08L153.75 6.08Q152.98 6.08 152.34 6.15L152.34 6.15L152.34 6.15Q151.70 6.23 151.12 6.31L151.12 6.31L151.12 6.31Q151.03 6.44 150.93 6.64L150.93 6.64L150.93 6.64Q150.82 6.83 150.65 7.18L150.65 7.18L150.65 7.18Q150.49 7.53 150.24 8.06L150.24 8.06L150.24 8.06Q150.00 8.60 149.65 9.39L149.65 9.39L149.65 9.39Q150.18 9.31 150.65 9.26L150.65 9.26L150.65 9.26Q151.12 9.21 151.44 9.21ZM177.30 9.21L177.30 9.21L177.30 9.21Q177.76 9.21 178.02 9.46L178.02 9.46L178.02 9.46Q178.28 9.72 178.28 10.16L178.28 10.16L178.28 10.16Q178.28 10.28 178.25 10.39L178.25 10.39L178.25 10.39Q178.23 10.51 178.21 10.60L178.21 10.60L178.21 10.60Q178.02 10.57 177.80 10.55L177.80 10.55L177.80 10.55Q177.58 10.53 177.27 10.53L177.27 10.53L177.27 10.53Q176.67 10.53 176.05 10.63L176.05 10.63L176.05 10.63Q175.43 10.74 174.87 10.81L174.87 10.81L174.87 10.81Q174.55 11.55 174.29 12.24L174.29 12.24L174.29 12.24Q174.02 12.94 173.83 13.51L173.83 13.51L173.83 13.51Q173.64 14.08 173.54 14.50L173.54 14.50L173.54 14.50Q173.43 14.92 173.42 15.13L173.42 15.13L173.42 15.13Q174.55 14.90 175.71 14.73L175.71 14.73L175.71 14.73Q176.86 14.56 178.14 14.48L178.14 14.48L178.14 14.48Q178.29 14.71 178.39 14.99L178.39 14.99L178.39 14.99Q178.50 15.27 178.50 15.60L178.50 15.60L178.50 15.60Q178.50 15.68 178.50 15.78L178.50 15.78L178.50 15.78Q178.50 15.88 178.47 15.97L178.47 15.97L178.47 15.97Q178.08 15.96 177.65 15.95L177.65 15.95L177.65 15.95Q177.21 15.95 176.51 15.95L176.51 15.95L176.51 15.95Q176.05 15.95 175.64 15.97L175.64 15.97L175.64 15.97Q175.22 15.99 174.80 16.03L174.80 16.03L174.80 16.03Q174.38 16.07 173.91 16.14L173.91 16.14L173.91 16.14Q173.45 16.21 172.86 16.31L172.86 16.31L172.86 16.31Q172.21 16.06 171.61 15.08L171.61 15.08L171.61 15.08Q171.85 14.57 172.28 13.54L172.28 13.54L172.28 13.54Q172.70 12.52 173.36 10.79L173.36 10.79L173.36 10.79Q172.73 10.60 172.54 10.09L172.54 10.09L172.54 10.09Q172.61 10.02 172.94 9.92L172.94 9.92L172.94 9.92Q173.28 9.81 173.77 9.70L173.77 9.70L173.77 9.70Q173.98 9.16 174.13 8.75L174.13 8.75L174.13 8.75Q174.27 8.34 174.38 7.99L174.38 7.99L174.38 7.99Q174.50 7.63 174.59 7.29L174.59 7.29L174.59 7.29Q174.68 6.94 174.76 6.54L174.76 6.54L174.76 6.54Q174.27 6.51 173.99 6.27L173.99 6.27L173.99 6.27Q173.71 6.02 173.71 5.63L173.71 5.63L173.71 5.63Q173.71 5.52 173.75 5.36L173.75 5.36L173.75 5.36Q173.78 5.21 173.82 5.10L173.82 5.10L173.82 5.10Q174.10 5.14 174.36 5.15L174.36 5.15L174.36 5.15Q174.62 5.17 175.04 5.17L175.04 5.17L175.04 5.17Q175.92 5.17 176.69 5.12L176.69 5.12L176.69 5.12Q177.46 5.07 178.09 5.01L178.09 5.01L178.09 5.01Q178.71 4.96 179.16 4.91L179.16 4.91L179.16 4.91Q179.61 4.86 179.84 4.86L179.84 4.86L179.84 4.86Q180.17 4.86 180.42 5.19L180.42 5.19L180.42 5.19Q180.67 5.53 180.80 6.15L180.80 6.15L180.80 6.15Q180.36 6.10 180.09 6.09L180.09 6.09L180.09 6.09Q179.82 6.08 179.61 6.08L179.61 6.08L179.61 6.08Q178.84 6.08 178.20 6.15L178.20 6.15L178.20 6.15Q177.56 6.23 176.97 6.31L176.97 6.31L176.97 6.31Q176.89 6.44 176.78 6.64L176.78 6.64L176.78 6.64Q176.68 6.83 176.51 7.18L176.51 7.18L176.51 7.18Q176.34 7.53 176.10 8.06L176.10 8.06L176.10 8.06Q175.85 8.60 175.50 9.39L175.50 9.39L175.50 9.39Q176.04 9.31 176.50 9.26L176.50 9.26L176.50 9.26Q176.97 9.21 177.30 9.21ZM192.25 14.38L192.25 14.38L192.25 14.38Q192.60 14.98 192.60 15.54L192.60 15.54L192.60 15.54Q192.60 15.67 192.58 15.77L192.58 15.77L192.58 15.77Q192.56 15.88 192.53 15.99L192.53 15.99L192.53 15.99Q192.29 15.96 192.03 15.95L192.03 15.95L192.03 15.95Q191.77 15.93 191.49 15.93L191.49 15.93L191.49 15.93Q191.16 15.93 190.81 15.95L190.81 15.95L190.81 15.95Q190.47 15.97 190.05 16.02L190.05 16.02L190.05 16.02Q189.63 16.06 189.11 16.13L189.11 16.13L189.11 16.13Q188.59 16.20 187.91 16.31L187.91 16.31L187.91 16.31Q187.59 16.20 187.26 15.87L187.26 15.87L187.26 15.87Q186.94 15.54 186.66 15.08L186.66 15.08L186.66 15.08Q186.80 14.77 187.01 14.31L187.01 14.31L187.01 14.31Q187.22 13.86 187.50 13.21L187.50 13.21L187.50 13.21Q187.78 12.56 188.13 11.68L188.13 11.68L188.13 11.68Q188.47 10.81 188.86 9.66L188.86 9.66L188.86 9.66Q189.11 8.90 189.29 8.33L189.29 8.33L189.29 8.33Q189.48 7.76 189.62 7.22L189.62 7.22L189.62 7.22Q189.77 6.68 189.91 6.09L189.91 6.09L189.91 6.09Q190.05 5.50 190.22 4.73L190.22 4.73L190.22 4.73Q190.78 4.84 191.19 5.14L191.19 5.14L191.19 5.14Q191.60 5.45 191.98 6.01L191.98 6.01L191.98 6.01Q191.87 6.19 191.69 6.59L191.69 6.59L191.69 6.59Q191.51 7 191.26 7.58L191.26 7.58L191.26 7.58Q191.02 8.16 190.72 8.90L190.72 8.90L190.72 8.90Q190.43 9.63 190.11 10.47L190.11 10.47L190.11 10.47Q189.80 11.30 189.50 12.03L189.50 12.03L189.50 12.03Q189.21 12.75 188.98 13.34L188.98 13.34L188.98 13.34Q188.75 13.93 188.61 14.35L188.61 14.35L188.61 14.35Q188.47 14.77 188.47 14.98L188.47 14.98L188.47 14.98Q188.69 14.97 188.87 14.95L188.87 14.95L188.87 14.95Q189.06 14.94 189.25 14.90L189.25 14.90L189.25 14.90Q189.45 14.87 189.68 14.82L189.68 14.82L189.68 14.82Q189.91 14.77 190.23 14.69L190.23 14.69L190.23 14.69Q190.51 14.62 190.75 14.57L190.75 14.57L190.75 14.57Q190.99 14.52 191.22 14.48L191.22 14.48L191.22 14.48Q191.45 14.45 191.69 14.43L191.69 14.43L191.69 14.43Q191.94 14.41 192.25 14.38ZM206.67 9.21L206.67 9.21L206.67 9.21Q207.13 9.21 207.39 9.46L207.39 9.46L207.39 9.46Q207.65 9.72 207.65 10.16L207.65 10.16L207.65 10.16Q207.65 10.28 207.63 10.39L207.63 10.39L207.63 10.39Q207.61 10.51 207.58 10.60L207.58 10.60L207.58 10.60Q207.40 10.57 207.17 10.55L207.17 10.55L207.17 10.55Q206.95 10.53 206.64 10.53L206.64 10.53L206.64 10.53Q206.04 10.53 205.42 10.63L205.42 10.63L205.42 10.63Q204.81 10.74 204.25 10.81L204.25 10.81L204.25 10.81Q203.92 11.55 203.66 12.24L203.66 12.24L203.66 12.24Q203.39 12.94 203.20 13.51L203.20 13.51L203.20 13.51Q203.01 14.08 202.91 14.50L202.91 14.50L202.91 14.50Q202.80 14.92 202.79 15.13L202.79 15.13L202.79 15.13Q203.92 14.90 205.08 14.73L205.08 14.73L205.08 14.73Q206.23 14.56 207.51 14.48L207.51 14.48L207.51 14.48Q207.66 14.71 207.77 14.99L207.77 14.99L207.77 14.99Q207.87 15.27 207.87 15.60L207.87 15.60L207.87 15.60Q207.87 15.68 207.87 15.78L207.87 15.78L207.87 15.78Q207.87 15.88 207.84 15.97L207.84 15.97L207.84 15.97Q207.45 15.96 207.02 15.95L207.02 15.95L207.02 15.95Q206.58 15.95 205.88 15.95L205.88 15.95L205.88 15.95Q205.42 15.95 205.01 15.97L205.01 15.97L205.01 15.97Q204.60 15.99 204.18 16.03L204.18 16.03L204.18 16.03Q203.76 16.07 203.29 16.14L203.29 16.14L203.29 16.14Q202.82 16.21 202.23 16.31L202.23 16.31L202.23 16.31Q201.59 16.06 200.98 15.08L200.98 15.08L200.98 15.08Q201.22 14.57 201.65 13.54L201.65 13.54L201.65 13.54Q202.08 12.52 202.73 10.79L202.73 10.79L202.73 10.79Q202.10 10.60 201.91 10.09L201.91 10.09L201.91 10.09Q201.98 10.02 202.31 9.92L202.31 9.92L202.31 9.92Q202.65 9.81 203.14 9.70L203.14 9.70L203.14 9.70Q203.35 9.16 203.50 8.75L203.50 8.75L203.50 8.75Q203.64 8.34 203.76 7.99L203.76 7.99L203.76 7.99Q203.87 7.63 203.96 7.29L203.96 7.29L203.96 7.29Q204.05 6.94 204.13 6.54L204.13 6.54L204.13 6.54Q203.64 6.51 203.36 6.27L203.36 6.27L203.36 6.27Q203.08 6.02 203.08 5.63L203.08 5.63L203.08 5.63Q203.08 5.52 203.12 5.36L203.12 5.36L203.12 5.36Q203.15 5.21 203.20 5.10L203.20 5.10L203.20 5.10Q203.48 5.14 203.74 5.15L203.74 5.15L203.74 5.15Q203.99 5.17 204.41 5.17L204.41 5.17L204.41 5.17Q205.30 5.17 206.07 5.12L206.07 5.12L206.07 5.12Q206.84 5.07 207.46 5.01L207.46 5.01L207.46 5.01Q208.08 4.96 208.53 4.91L208.53 4.91L208.53 4.91Q208.98 4.86 209.22 4.86L209.22 4.86L209.22 4.86Q209.54 4.86 209.79 5.19L209.79 5.19L209.79 5.19Q210.04 5.53 210.17 6.15L210.17 6.15L210.17 6.15Q209.73 6.10 209.46 6.09L209.46 6.09L209.46 6.09Q209.19 6.08 208.98 6.08L208.98 6.08L208.98 6.08Q208.21 6.08 207.57 6.15L207.57 6.15L207.57 6.15Q206.93 6.23 206.35 6.31L206.35 6.31L206.35 6.31Q206.26 6.44 206.16 6.64L206.16 6.64L206.16 6.64Q206.05 6.83 205.88 7.18L205.88 7.18L205.88 7.18Q205.72 7.53 205.47 8.06L205.47 8.06L205.47 8.06Q205.23 8.60 204.88 9.39L204.88 9.39L204.88 9.39Q205.41 9.31 205.88 9.26L205.88 9.26L205.88 9.26Q206.35 9.21 206.67 9.21ZM224.03 10.72L224.03 10.72L224.03 10.72Q224.39 10.72 224.60 10.98L224.60 10.98L224.60 10.98Q224.81 11.23 224.81 11.68L224.81 11.68L224.81 11.68Q224.81 11.79 224.80 11.91L224.80 11.91L224.80 11.91Q224.78 12.03 224.76 12.11L224.76 12.11L224.76 12.11Q224.46 12.04 224.11 12.03L224.11 12.03L224.11 12.03Q224.03 12.64 223.66 13.32L223.66 13.32L223.66 13.32Q223.30 14 222.78 14.60L222.78 14.60L222.78 14.60Q222.26 15.19 221.65 15.64L221.65 15.64L221.65 15.64Q221.03 16.09 220.43 16.24L220.43 16.24L220.43 16.24Q218.55 16.20 217.69 15.27L217.69 15.27L217.69 15.27Q216.83 14.34 216.83 12.36L216.83 12.36L216.83 12.36Q216.83 10.92 217.36 9.57L217.36 9.57L217.36 9.57Q217.90 8.22 218.78 7.17L218.78 7.17L218.78 7.17Q219.66 6.12 220.80 5.48L220.80 5.48L220.80 5.48Q221.94 4.84 223.17 4.84L223.17 4.84L223.17 4.84Q224.14 4.84 224.68 5.25L224.68 5.25L224.68 5.25Q225.22 5.66 225.22 6.40L225.22 6.40L225.22 6.40Q225.22 6.89 224.99 7.31L224.99 7.31L224.99 7.31Q224.76 7.73 224.22 8.22L224.22 8.22L224.22 8.22Q223.90 8.12 223.66 7.88L223.66 7.88L223.66 7.88Q223.43 7.63 223.37 7.31L223.37 7.31L223.37 7.31Q223.85 6.96 224.04 6.66L224.04 6.66L224.04 6.66Q224.24 6.37 224.24 5.96L224.24 5.96L224.24 5.96Q224.24 5.32 223.47 5.32L223.47 5.32L223.47 5.32Q222.84 5.32 222.12 5.79L222.12 5.79L222.12 5.79Q221.40 6.26 220.67 7.14L220.67 7.14L220.67 7.14Q219.63 8.39 219.16 9.71L219.16 9.71L219.16 9.71Q218.68 11.03 218.68 12.68L218.68 12.68L218.68 12.68Q218.68 13.30 218.81 13.80L218.81 13.80L218.81 13.80Q218.93 14.31 219.14 14.69L219.14 14.69L219.14 14.69Q219.35 15.06 219.64 15.29L219.64 15.29L219.64 15.29Q219.93 15.51 220.26 15.54L220.26 15.54L220.26 15.54Q220.71 15.44 221.16 15.09L221.16 15.09L221.16 15.09Q221.61 14.73 221.98 14.25L221.98 14.25L221.98 14.25Q222.35 13.76 222.61 13.21L222.61 13.21L222.61 13.21Q222.87 12.66 222.92 12.15L222.92 12.15L222.92 12.15Q222.53 12.24 222.17 12.31L222.17 12.31L222.17 12.31Q221.82 12.39 221.49 12.39L221.49 12.39L221.49 12.39Q221.07 12.39 220.76 12.18L220.76 12.18L220.76 12.18Q220.44 11.97 220.33 11.61L220.33 11.61L220.33 11.61Q220.58 11.47 221.07 11.31L221.07 11.31L221.07 11.31Q221.55 11.16 222.10 11.03L222.10 11.03L222.10 11.03Q222.64 10.89 223.17 10.81L223.17 10.81L223.17 10.81Q223.69 10.72 224.03 10.72ZM233.00 16.24L233.00 16.24L233.00 16.24Q232.33 16.04 232.07 15.85L232.07 15.85L232.07 15.85Q231.81 15.65 231.81 15.36L231.81 15.36L231.81 15.36Q231.81 15.13 231.94 14.73L231.94 14.73L231.94 14.73Q232.06 14.32 232.31 13.77L232.31 13.77L232.31 13.77Q232.55 13.22 232.90 12.54L232.90 12.54L232.90 12.54Q233.24 11.87 233.67 11.10L233.67 11.10L233.67 11.10Q233.31 11.09 233.02 11.08L233.02 11.08L233.02 11.08Q232.74 11.07 232.55 11.07L232.55 11.07L232.55 11.07Q232.64 10.86 233.03 10.71L233.03 10.71L233.03 10.71Q233.42 10.56 234.07 10.44L234.07 10.44L234.07 10.44Q234.61 9.53 235.24 8.71L235.24 8.71L235.24 8.71Q235.86 7.88 236.49 7.19L236.49 7.19L236.49 7.19Q237.12 6.50 237.75 5.97L237.75 5.97L237.75 5.97Q238.38 5.45 238.95 5.14L238.95 5.14L238.95 5.14Q238.97 5.04 238.97 4.97L238.97 4.97L238.97 4.97Q238.98 4.90 238.98 4.87L238.98 4.87L238.98 4.87Q239.18 4.87 239.51 4.97L239.51 4.97L239.51 4.97Q239.83 5.07 240.15 5.21L240.15 5.21L240.15 5.21Q240.46 5.35 240.71 5.49L240.71 5.49L240.71 5.49Q240.95 5.64 240.98 5.74L240.98 5.74L240.98 5.74Q240.52 6.55 240.07 8.17L240.07 8.17L240.07 8.17Q239.62 9.79 239.33 12.04L239.33 12.04L239.33 12.04Q239.26 12.60 239.21 13.31L239.21 13.31L239.21 13.31Q239.16 14.03 239.16 14.91L239.16 14.91L239.16 14.91Q239.16 15.22 239.16 15.54L239.16 15.54L239.16 15.54Q239.16 15.86 239.19 16.21L239.19 16.21L239.19 16.21Q239.16 16.23 239.13 16.23L239.13 16.23L239.13 16.23Q239.11 16.23 239.02 16.23L239.02 16.23L239.02 16.23Q238.83 16.23 238.57 16.16L238.57 16.16L238.57 16.16Q238.31 16.10 238.06 16.01L238.06 16.01L238.06 16.01Q237.82 15.92 237.64 15.81L237.64 15.81L237.64 15.81Q237.47 15.69 237.43 15.61L237.43 15.61L237.43 15.61Q237.41 15.43 237.41 15.25L237.41 15.25L237.41 15.25Q237.41 15.08 237.41 14.88L237.41 14.88L237.41 14.88Q237.41 14.01 237.48 13.12L237.48 13.12L237.48 13.12Q237.54 12.22 237.69 11.27L237.69 11.27L237.69 11.27Q237.50 11.26 237.17 11.23L237.17 11.23L237.17 11.23Q236.85 11.21 236.45 11.20L236.45 11.20L236.45 11.20Q236.05 11.19 235.60 11.16L235.60 11.16L235.60 11.16Q235.14 11.14 234.71 11.13L234.71 11.13L234.71 11.13Q234.37 11.76 234.08 12.38L234.08 12.38L234.08 12.38Q233.79 13.01 233.58 13.64L233.58 13.64L233.58 13.64Q233.34 14.31 233.19 14.98L233.19 14.98L233.19 14.98Q233.04 15.65 233.00 16.24ZM238.41 7.83L238.41 7.83L238.41 7.83Q238.46 7.63 238.54 7.29L238.54 7.29L238.54 7.29Q238.62 6.94 238.69 6.57L238.69 6.57L238.69 6.57Q238.34 6.69 237.91 7.03L237.91 7.03L237.91 7.03Q237.48 7.36 237.03 7.86L237.03 7.86L237.03 7.86Q236.57 8.36 236.10 8.98L236.10 8.98L236.10 8.98Q235.63 9.60 235.20 10.30L235.20 10.30L235.20 10.30Q236.38 10.21 237.87 10.18L237.87 10.18L237.87 10.18Q237.99 9.59 238.12 9.01L238.12 9.01L238.12 9.01Q238.25 8.43 238.41 7.83ZM249.61 16.24L249.61 16.24L249.61 16.24Q248.81 16.00 248.53 15.79L248.53 15.79L248.53 15.79Q248.25 15.57 248.25 15.19L248.25 15.19L248.25 15.19Q248.25 14.77 248.44 14.01L248.44 14.01L248.44 14.01Q248.64 13.24 248.96 12.31L248.96 12.31L248.96 12.31Q249.27 11.37 249.68 10.35L249.68 10.35L249.68 10.35Q250.08 9.32 250.50 8.39L250.50 8.39L250.50 8.39Q250.92 7.45 251.32 6.67L251.32 6.67L251.32 6.67Q251.72 5.89 252.03 5.46L252.03 5.46L251.93 4.87L251.93 4.87Q252.13 4.87 252.48 4.97L252.48 4.97L252.48 4.97Q252.83 5.07 253.18 5.21L253.18 5.21L253.18 5.21Q253.54 5.35 253.81 5.49L253.81 5.49L253.81 5.49Q254.09 5.64 254.11 5.74L254.11 5.74L254.11 5.74Q254.04 6.08 254.00 6.76L254.00 6.76L254.00 6.76Q253.96 7.43 253.96 8.20L253.96 8.20L253.96 8.20Q253.96 9.73 254.08 11.19L254.08 11.19L254.08 11.19Q254.20 12.66 254.63 14.17L254.63 14.17L254.63 14.17Q254.86 13.05 255.12 11.94L255.12 11.94L255.12 11.94Q255.37 10.82 255.65 9.81L255.65 9.81L255.65 9.81Q255.93 8.79 256.21 7.92L256.21 7.92L256.21 7.92Q256.49 7.06 256.75 6.40L256.75 6.40L256.75 6.40Q257.01 5.75 257.24 5.38L257.24 5.38L257.24 5.38Q257.46 5.01 257.64 4.98L257.64 4.98L257.64 4.98Q257.80 5.01 257.98 5.10L257.98 5.10L257.98 5.10Q258.16 5.19 258.33 5.32L258.33 5.32L258.33 5.32Q258.50 5.45 258.64 5.60L258.64 5.60L258.64 5.60Q258.78 5.75 258.86 5.91L258.86 5.91L258.86 5.91Q258.41 6.09 257.97 6.76L257.97 6.76L257.97 6.76Q257.53 7.43 257.13 8.39L257.13 8.39L257.13 8.39Q256.73 9.35 256.39 10.47L256.39 10.47L256.39 10.47Q256.05 11.59 255.79 12.68L255.79 12.68L255.79 12.68Q255.53 13.76 255.38 14.69L255.38 14.69L255.38 14.69Q255.23 15.61 255.22 16.17L255.22 16.17L255.22 16.17Q255.22 16.20 255.23 16.21L255.23 16.21L255.23 16.21Q255.19 16.23 255.14 16.23L255.14 16.23L255.14 16.23Q255.09 16.23 255.05 16.23L255.05 16.23L255.05 16.23Q254.41 16.23 253.91 16.07L253.91 16.07L253.91 16.07Q253.41 15.90 253.26 15.61L253.26 15.61L253.26 15.61Q252.97 14.43 252.77 13.34L252.77 13.34L252.77 13.34Q252.57 12.25 252.44 11.16L252.44 11.16L252.44 11.16Q252.31 10.07 252.23 8.95L252.23 8.95L252.23 8.95Q252.15 7.84 252.11 6.62L252.11 6.62L252.11 6.62Q251.85 7.04 251.55 7.72L251.55 7.72L251.55 7.72Q251.26 8.40 250.98 9.21L250.98 9.21L250.98 9.21Q250.70 10.02 250.44 10.92L250.44 10.92L250.44 10.92Q250.18 11.82 249.98 12.67L249.98 12.67L249.98 12.67Q249.79 13.52 249.68 14.29L249.68 14.29L249.68 14.29Q249.56 15.05 249.56 15.61L249.56 15.61L249.56 15.61Q249.56 15.90 249.57 16.03L249.57 16.03L249.57 16.03Q249.58 16.16 249.61 16.24ZM267.69 6.69L267.69 6.69L267.69 6.69Q267.13 6.69 266.83 6.38L266.83 6.38L266.83 6.38Q266.53 6.06 266.53 5.61L266.53 5.61L266.53 5.61Q266.53 5.50 266.57 5.35L266.57 5.35L266.57 5.35Q266.60 5.19 266.66 5.08L266.66 5.08L266.66 5.08Q266.84 5.17 267.20 5.20L267.20 5.20L267.20 5.20Q267.55 5.24 268.03 5.24L268.03 5.24L268.03 5.24Q268.74 5.24 269.65 5.17L269.65 5.17L269.65 5.17Q270.55 5.11 271.38 5.04L271.38 5.04L271.38 5.04Q272.20 4.97 272.83 4.91L272.83 4.91L272.83 4.91Q273.46 4.84 273.64 4.84L273.64 4.84L273.64 4.84Q274.16 4.84 274.39 5.23L274.39 5.23L274.39 5.23Q274.62 5.61 274.74 6.26L274.74 6.26L274.74 6.26Q274.37 6.23 274.02 6.21L274.02 6.21L274.02 6.21Q273.66 6.19 273.41 6.19L273.41 6.19L273.41 6.19Q272.96 6.19 272.50 6.22L272.50 6.22L272.50 6.22Q272.05 6.24 271.59 6.30L271.59 6.30L271.59 6.30Q271.39 6.71 271.15 7.26L271.15 7.26L271.15 7.26Q270.91 7.81 270.68 8.41L270.68 8.41L270.68 8.41Q270.45 9.02 270.24 9.61L270.24 9.61L270.24 9.61Q270.03 10.21 269.88 10.68L269.88 10.68L269.88 10.68Q269.57 11.61 269.34 12.39L269.34 12.39L269.34 12.39Q269.11 13.17 268.93 13.85L268.93 13.85L268.93 13.85Q268.76 14.53 268.63 15.15L268.63 15.15L268.63 15.15Q268.51 15.76 268.41 16.35L268.41 16.35L268.41 16.35Q267.47 16.21 266.84 15.18L266.84 15.18L266.84 15.18Q266.95 14.74 267.11 14.23L267.11 14.23L267.11 14.23Q267.27 13.72 267.49 13.07L267.49 13.07L267.49 13.07Q267.71 12.42 268.00 11.59L268.00 11.59L268.00 11.59Q268.30 10.77 268.67 9.72L268.67 9.72L268.67 9.72Q268.81 9.32 268.97 8.90L268.97 8.90L268.97 8.90Q269.12 8.47 269.27 8.05L269.27 8.05L269.27 8.05Q269.42 7.63 269.54 7.24L269.54 7.24L269.54 7.24Q269.65 6.85 269.74 6.52L269.74 6.52L269.74 6.52Q269.15 6.59 268.63 6.64L268.63 6.64L268.63 6.64Q268.10 6.69 267.69 6.69ZM278.24 17.54L278.24 17.54L278.24 17.54Q278.15 17.47 278.08 17.31L278.08 17.31L278.08 17.31Q278.01 17.15 278.01 17.01L278.01 17.01L278.01 17.01Q278.71 16.41 279.01 15.86L279.01 15.86L279.01 15.86Q279.31 15.32 279.31 14.67L279.31 14.67L279.31 14.67Q279.31 14.25 279.28 13.95L279.28 13.95L279.28 13.95Q279.24 13.65 279.15 13.26L279.15 13.26L279.15 13.26Q279.50 13.29 279.84 13.38L279.84 13.38L279.84 13.38Q280.18 13.47 280.45 13.60L280.45 13.60L280.45 13.60Q280.73 13.73 280.91 13.91L280.91 13.91L280.91 13.91Q281.09 14.08 281.13 14.25L281.13 14.25L281.13 14.25Q280.48 16.58 278.24 17.54ZM309.75 7.46L309.75 7.46L309.75 7.46Q309.75 8.33 309.27 9.01L309.27 9.01L309.27 9.01Q308.80 9.69 307.97 10.14L307.97 10.14L307.97 10.14Q308.50 10.50 308.82 11.03L308.82 11.03L308.82 11.03Q309.13 11.55 309.13 12.18L309.13 12.18L309.13 12.18Q309.13 12.94 308.68 13.67L308.68 13.67L308.68 13.67Q308.22 14.41 307.47 14.97L307.47 14.97L307.47 14.97Q306.71 15.54 305.75 15.89L305.75 15.89L305.75 15.89Q304.78 16.24 303.77 16.24L303.77 16.24L303.77 16.24Q302.68 16.24 301.86 15.83L301.86 15.83L301.86 15.83Q301.04 15.41 300.58 14.66L300.58 14.66L300.58 14.66Q300.72 14.24 300.95 13.62L300.95 13.62L300.95 13.62Q301.18 12.99 301.46 12.30L301.46 12.30L301.46 12.30Q301.74 11.61 302.03 10.92L302.03 10.92L302.03 10.92Q302.32 10.23 302.57 9.69L302.57 9.69L302.57 9.69Q303.10 8.50 303.52 7.71L303.52 7.71L303.52 7.71Q303.94 6.93 304.29 6.47L304.29 6.47L304.29 6.47Q303.52 6.71 302.89 7.01L302.89 7.01L302.89 7.01Q302.26 7.31 301.97 7.59L301.97 7.59L301.97 7.59Q301.84 7.50 301.71 7.34L301.71 7.34L301.71 7.34Q301.57 7.17 301.45 6.96L301.45 6.96L301.45 6.96Q301.34 6.76 301.26 6.55L301.26 6.55L301.26 6.55Q301.18 6.34 301.17 6.17L301.17 6.17L301.17 6.17Q301.53 5.92 302.11 5.69L302.11 5.69L302.11 5.69Q302.69 5.46 303.38 5.29L303.38 5.29L303.38 5.29Q304.07 5.12 304.79 5.03L304.79 5.03L304.79 5.03Q305.51 4.93 306.17 4.93L306.17 4.93L306.17 4.93Q307.85 4.93 308.80 5.60L308.80 5.60L308.80 5.60Q309.75 6.27 309.75 7.46ZM304.42 10.81L304.42 10.81L304.42 10.81Q304.15 10.68 303.93 10.43L303.93 10.43L303.93 10.43Q303.60 11.14 303.32 11.83L303.32 11.83L303.32 11.83Q303.03 12.52 302.81 13.10L302.81 13.10L302.81 13.10Q302.58 13.69 302.44 14.13L302.44 14.13L302.44 14.13Q302.30 14.56 302.29 14.76L302.29 14.76L302.29 14.76Q302.48 14.87 302.76 14.92L302.76 14.92L302.76 14.92Q303.03 14.98 303.44 14.98L303.44 14.98L303.44 14.98Q304.39 14.98 305.26 14.71L305.26 14.71L305.26 14.71Q306.12 14.45 306.78 13.99L306.78 13.99L306.78 13.99Q307.44 13.54 307.83 12.95L307.83 12.95L307.83 12.95Q308.22 12.36 308.22 11.72L308.22 11.72L308.22 11.72Q308.22 10.79 307.43 10.39L307.43 10.39L307.43 10.39Q306.33 10.84 304.96 10.84L304.96 10.84L304.96 10.84Q304.77 10.84 304.66 10.84L304.66 10.84L304.66 10.84Q304.56 10.84 304.42 10.81ZM307.13 5.95L307.13 5.95L307.13 5.95Q306.84 5.95 306.51 5.98L306.51 5.98L306.51 5.98Q306.18 6.02 305.82 6.09L305.82 6.09L305.82 6.09Q305.87 6.15 305.91 6.21L305.91 6.21L305.91 6.21Q305.94 6.27 305.97 6.34L305.97 6.34L305.97 6.34Q305.84 6.51 305.66 6.83L305.66 6.83L305.66 6.83Q305.48 7.15 305.26 7.58L305.26 7.58L305.26 7.58Q305.03 8.01 304.79 8.53L304.79 8.53L304.79 8.53Q304.54 9.04 304.29 9.59L304.29 9.59L304.29 9.59Q304.53 9.53 304.87 9.50L304.87 9.50L304.87 9.50Q305.21 9.46 305.55 9.46L305.55 9.46L305.55 9.46Q305.73 9.46 305.91 9.48L305.91 9.48L305.91 9.48Q306.08 9.49 306.25 9.52L306.25 9.52L306.25 9.52Q306.92 9.41 307.46 9.19L307.46 9.19L307.46 9.19Q308 8.97 308.39 8.69L308.39 8.69L308.39 8.69Q308.78 8.40 308.99 8.05L308.99 8.05L308.99 8.05Q309.20 7.70 309.20 7.31L309.20 7.31L309.20 7.31Q309.20 6.64 308.67 6.29L308.67 6.29L308.67 6.29Q308.14 5.95 307.13 5.95ZM322.88 9.21L322.88 9.21L322.88 9.21Q323.34 9.21 323.60 9.46L323.60 9.46L323.60 9.46Q323.86 9.72 323.86 10.16L323.86 10.16L323.86 10.16Q323.86 10.28 323.84 10.39L323.84 10.39L323.84 10.39Q323.82 10.51 323.79 10.60L323.79 10.60L323.79 10.60Q323.61 10.57 323.39 10.55L323.39 10.55L323.39 10.55Q323.16 10.53 322.85 10.53L322.85 10.53L322.85 10.53Q322.25 10.53 321.64 10.63L321.64 10.63L321.64 10.63Q321.02 10.74 320.46 10.81L320.46 10.81L320.46 10.81Q320.14 11.55 319.87 12.24L319.87 12.24L319.87 12.24Q319.61 12.94 319.42 13.51L319.42 13.51L319.42 13.51Q319.23 14.08 319.12 14.50L319.12 14.50L319.12 14.50Q319.02 14.92 319.00 15.13L319.00 15.13L319.00 15.13Q320.14 14.90 321.29 14.73L321.29 14.73L321.29 14.73Q322.45 14.56 323.72 14.48L323.72 14.48L323.72 14.48Q323.88 14.71 323.98 14.99L323.98 14.99L323.98 14.99Q324.09 15.27 324.09 15.60L324.09 15.60L324.09 15.60Q324.09 15.68 324.09 15.78L324.09 15.78L324.09 15.78Q324.09 15.88 324.06 15.97L324.06 15.97L324.06 15.97Q323.67 15.96 323.23 15.95L323.23 15.95L323.23 15.95Q322.80 15.95 322.10 15.95L322.10 15.95L322.10 15.95Q321.64 15.95 321.22 15.97L321.22 15.97L321.22 15.97Q320.81 15.99 320.39 16.03L320.39 16.03L320.39 16.03Q319.97 16.07 319.50 16.14L319.50 16.14L319.50 16.14Q319.03 16.21 318.44 16.31L318.44 16.31L318.44 16.31Q317.80 16.06 317.20 15.08L317.20 15.08L317.20 15.08Q317.44 14.57 317.86 13.54L317.86 13.54L317.86 13.54Q318.29 12.52 318.95 10.79L318.95 10.79L318.95 10.79Q318.32 10.60 318.12 10.09L318.12 10.09L318.12 10.09Q318.19 10.02 318.53 9.92L318.53 9.92L318.53 9.92Q318.86 9.81 319.35 9.70L319.35 9.70L319.35 9.70Q319.56 9.16 319.71 8.75L319.71 8.75L319.71 8.75Q319.86 8.34 319.97 7.99L319.97 7.99L319.97 7.99Q320.08 7.63 320.17 7.29L320.17 7.29L320.17 7.29Q320.26 6.94 320.35 6.54L320.35 6.54L320.35 6.54Q319.86 6.51 319.58 6.27L319.58 6.27L319.58 6.27Q319.30 6.02 319.30 5.63L319.30 5.63L319.30 5.63Q319.30 5.52 319.33 5.36L319.33 5.36L319.33 5.36Q319.37 5.21 319.41 5.10L319.41 5.10L319.41 5.10Q319.69 5.14 319.95 5.15L319.95 5.15L319.95 5.15Q320.21 5.17 320.63 5.17L320.63 5.17L320.63 5.17Q321.51 5.17 322.28 5.12L322.28 5.12L322.28 5.12Q323.05 5.07 323.67 5.01L323.67 5.01L323.67 5.01Q324.30 4.96 324.74 4.91L324.74 4.91L324.74 4.91Q325.19 4.86 325.43 4.86L325.43 4.86L325.43 4.86Q325.75 4.86 326.00 5.19L326.00 5.19L326.00 5.19Q326.26 5.53 326.38 6.15L326.38 6.15L326.38 6.15Q325.95 6.10 325.67 6.09L325.67 6.09L325.67 6.09Q325.40 6.08 325.19 6.08L325.19 6.08L325.19 6.08Q324.42 6.08 323.78 6.15L323.78 6.15L323.78 6.15Q323.15 6.23 322.56 6.31L322.56 6.31L322.56 6.31Q322.48 6.44 322.37 6.64L322.37 6.64L322.37 6.64Q322.27 6.83 322.10 7.18L322.10 7.18L322.10 7.18Q321.93 7.53 321.69 8.06L321.69 8.06L321.69 8.06Q321.44 8.60 321.09 9.39L321.09 9.39L321.09 9.39Q321.62 9.31 322.09 9.26L322.09 9.26L322.09 9.26Q322.56 9.21 322.88 9.21ZM352.09 5.74L352.09 5.74L352.09 5.74Q352.13 5.98 352.15 6.07L352.15 6.07L352.15 6.07Q352.17 6.16 352.17 6.31L352.17 6.31L352.17 6.31Q352.17 6.78 351.97 7.18L351.97 7.18L351.97 7.18Q351.76 7.57 351.41 7.74L351.41 7.74L351.41 7.74Q351.13 7.36 350.73 7.09L350.73 7.09L350.73 7.09Q350.32 6.82 349.84 6.64L349.84 6.64L349.84 6.64Q349.36 6.47 348.84 6.38L348.84 6.38L348.84 6.38Q348.32 6.30 347.83 6.30L347.83 6.30L347.83 6.30Q347.34 6.30 346.91 6.38L346.91 6.38L346.91 6.38Q346.49 6.45 346.16 6.59L346.16 6.59L346.16 6.59Q345.83 6.72 345.64 6.92L345.64 6.92L345.64 6.92Q345.45 7.11 345.45 7.36L345.45 7.36L345.45 7.36Q345.49 7.67 345.83 7.99L345.83 7.99L345.83 7.99Q346.16 8.30 346.65 8.60L346.65 8.60L346.65 8.60Q347.14 8.90 347.74 9.20L347.74 9.20L347.74 9.20Q348.33 9.49 348.91 9.76L348.91 9.76L348.91 9.76Q349.62 10.09 350.14 10.38L350.14 10.38L350.14 10.38Q350.66 10.67 350.99 11.01L350.99 11.01L350.99 11.01Q351.33 11.35 351.50 11.79L351.50 11.79L351.50 11.79Q351.67 12.22 351.67 12.84L351.67 12.84L351.67 12.84Q351.67 13.55 351.43 14.18L351.43 14.18L351.43 14.18Q351.19 14.80 350.73 15.26L350.73 15.26L350.73 15.26Q350.28 15.72 349.64 15.98L349.64 15.98L349.64 15.98Q348.99 16.24 348.19 16.24L348.19 16.24L348.19 16.24Q347.41 16.24 346.50 16.00L346.50 16.00L346.50 16.00Q345.59 15.76 344.80 15.35L344.80 15.35L344.80 15.35Q344.01 14.94 343.48 14.40L343.48 14.40L343.48 14.40Q342.96 13.86 342.96 13.26L342.96 13.26L342.96 13.26Q342.96 12.98 343.12 12.54L343.12 12.54L343.12 12.54Q343.28 12.11 343.70 11.63L343.70 11.63L343.70 11.63Q343.74 12.05 344.15 12.63L344.15 12.63L344.15 12.63Q344.57 13.20 345.39 13.69L345.39 13.69L345.39 13.69Q346.16 14.14 346.98 14.34L346.98 14.34L346.98 14.34Q347.80 14.55 348.52 14.55L348.52 14.55L348.52 14.55Q349.30 14.55 349.79 14.35L349.79 14.35L349.79 14.35Q350.28 14.15 350.56 13.88L350.56 13.88L350.56 13.88Q350.84 13.61 350.95 13.33L350.95 13.33L350.95 13.33Q351.06 13.05 351.08 12.88L351.08 12.88L351.08 12.88Q351.06 12.60 350.82 12.34L350.82 12.34L350.82 12.34Q350.57 12.08 350.16 11.84L350.16 11.84L350.16 11.84Q349.75 11.59 349.20 11.34L349.20 11.34L349.20 11.34Q348.66 11.09 348.07 10.84L348.07 10.84L348.07 10.84Q347.19 10.44 346.55 10.10L346.55 10.10L346.55 10.10Q345.91 9.76 345.50 9.40L345.50 9.40L345.50 9.40Q345.09 9.04 344.90 8.65L344.90 8.65L344.90 8.65Q344.71 8.26 344.71 7.76L344.71 7.76L344.71 7.76Q344.71 6.97 345.18 6.27L345.18 6.27L345.18 6.27Q345.66 5.57 346.56 5.21L346.56 5.21L346.56 5.21Q347.00 5.01 347.51 4.93L347.51 4.93L347.51 4.93Q348.03 4.84 348.52 4.84L348.52 4.84L348.52 4.84Q349.44 4.84 350.32 5.10L350.32 5.10L350.32 5.10Q351.20 5.35 352.09 5.74ZM365.57 9.21L365.57 9.21L365.57 9.21Q366.03 9.21 366.29 9.46L366.29 9.46L366.29 9.46Q366.55 9.72 366.55 10.16L366.55 10.16L366.55 10.16Q366.55 10.28 366.53 10.39L366.53 10.39L366.53 10.39Q366.51 10.51 366.48 10.60L366.48 10.60L366.48 10.60Q366.30 10.57 366.07 10.55L366.07 10.55L366.07 10.55Q365.85 10.53 365.54 10.53L365.54 10.53L365.54 10.53Q364.94 10.53 364.32 10.63L364.32 10.63L364.32 10.63Q363.71 10.74 363.15 10.81L363.15 10.81L363.15 10.81Q362.82 11.55 362.56 12.24L362.56 12.24L362.56 12.24Q362.29 12.94 362.10 13.51L362.10 13.51L362.10 13.51Q361.91 14.08 361.81 14.50L361.81 14.50L361.81 14.50Q361.70 14.92 361.69 15.13L361.69 15.13L361.69 15.13Q362.82 14.90 363.98 14.73L363.98 14.73L363.98 14.73Q365.13 14.56 366.41 14.48L366.41 14.48L366.41 14.48Q366.56 14.71 366.67 14.99L366.67 14.99L366.67 14.99Q366.77 15.27 366.77 15.60L366.77 15.60L366.77 15.60Q366.77 15.68 366.77 15.78L366.77 15.78L366.77 15.78Q366.77 15.88 366.74 15.97L366.74 15.97L366.74 15.97Q366.35 15.96 365.92 15.95L365.92 15.95L365.92 15.95Q365.48 15.95 364.78 15.95L364.78 15.95L364.78 15.95Q364.32 15.95 363.91 15.97L363.91 15.97L363.91 15.97Q363.50 15.99 363.08 16.03L363.08 16.03L363.08 16.03Q362.66 16.07 362.19 16.14L362.19 16.14L362.19 16.14Q361.72 16.21 361.13 16.31L361.13 16.31L361.13 16.31Q360.49 16.06 359.88 15.08L359.88 15.08L359.88 15.08Q360.12 14.57 360.55 13.54L360.55 13.54L360.55 13.54Q360.98 12.52 361.63 10.79L361.63 10.79L361.63 10.79Q361.00 10.60 360.81 10.09L360.81 10.09L360.81 10.09Q360.88 10.02 361.21 9.92L361.21 9.92L361.21 9.92Q361.55 9.81 362.04 9.70L362.04 9.70L362.04 9.70Q362.25 9.16 362.40 8.75L362.40 8.75L362.40 8.75Q362.54 8.34 362.66 7.99L362.66 7.99L362.66 7.99Q362.77 7.63 362.86 7.29L362.86 7.29L362.86 7.29Q362.95 6.94 363.03 6.54L363.03 6.54L363.03 6.54Q362.54 6.51 362.26 6.27L362.26 6.27L362.26 6.27Q361.98 6.02 361.98 5.63L361.98 5.63L361.98 5.63Q361.98 5.52 362.02 5.36L362.02 5.36L362.02 5.36Q362.05 5.21 362.10 5.10L362.10 5.10L362.10 5.10Q362.38 5.14 362.63 5.15L362.63 5.15L362.63 5.15Q362.89 5.17 363.31 5.17L363.31 5.17L363.31 5.17Q364.20 5.17 364.97 5.12L364.97 5.12L364.97 5.12Q365.74 5.07 366.36 5.01L366.36 5.01L366.36 5.01Q366.98 4.96 367.43 4.91L367.43 4.91L367.43 4.91Q367.88 4.86 368.12 4.86L368.12 4.86L368.12 4.86Q368.44 4.86 368.69 5.19L368.69 5.19L368.69 5.19Q368.94 5.53 369.07 6.15L369.07 6.15L369.07 6.15Q368.63 6.10 368.36 6.09L368.36 6.09L368.36 6.09Q368.09 6.08 367.88 6.08L367.88 6.08L367.88 6.08Q367.11 6.08 366.47 6.15L366.47 6.15L366.47 6.15Q365.83 6.23 365.25 6.31L365.25 6.31L365.25 6.31Q365.16 6.44 365.06 6.64L365.06 6.64L365.06 6.64Q364.95 6.83 364.78 7.18L364.78 7.18L364.78 7.18Q364.62 7.53 364.37 8.06L364.37 8.06L364.37 8.06Q364.13 8.60 363.78 9.39L363.78 9.39L363.78 9.39Q364.31 9.31 364.78 9.26L364.78 9.26L364.78 9.26Q365.25 9.21 365.57 9.21ZM382.96 15.23L382.96 15.23L382.96 15.23Q382.83 15.36 382.58 15.52L382.58 15.52L382.58 15.52Q382.34 15.68 382.06 15.81L382.06 15.81L382.06 15.81Q381.78 15.95 381.49 16.05L381.49 16.05L381.49 16.05Q381.21 16.16 381.02 16.17L381.02 16.17L381.02 16.17Q380.84 16.17 380.70 16.03L380.70 16.03L380.70 16.03Q380.56 15.89 380.41 15.39L380.41 15.39L380.41 15.39Q380.25 14.90 380.05 13.95L380.05 13.95L380.05 13.95Q379.85 13.01 379.54 11.38L379.54 11.38L379.54 11.38Q378.74 12.21 378.06 12.98L378.06 12.98L378.06 12.98Q377.37 13.75 376.88 14.41L376.88 14.41L376.88 14.41Q376.39 15.06 376.11 15.55L376.11 15.55L376.11 15.55Q375.83 16.04 375.83 16.30L375.83 16.30L375.83 16.30Q375.66 16.28 375.49 16.17L375.49 16.17L375.49 16.17Q375.31 16.06 375.17 15.90L375.17 15.90L375.17 15.90Q375.03 15.75 374.94 15.57L374.94 15.57L374.94 15.57Q374.85 15.39 374.85 15.22L374.85 15.22L374.85 15.22Q374.89 15.06 375.06 14.78L375.06 14.78L375.06 14.78Q375.23 14.50 375.48 14.18L375.48 14.18L375.48 14.18Q376.01 13.50 377.00 12.59L377.00 12.59L377.00 12.59Q377.99 11.69 379.39 10.60L379.39 10.60L379.39 10.60Q378.48 6.08 376.81 6.08L376.81 6.08L376.81 6.08Q376.98 5.67 377.35 5.36L377.35 5.36L377.35 5.36Q377.72 5.05 378.14 4.98L378.14 4.98L378.14 4.98Q378.60 4.98 378.90 5.10L378.90 5.10L378.90 5.10Q379.19 5.22 379.43 5.70L379.43 5.70L379.43 5.70Q379.67 6.17 379.90 7.13L379.90 7.13L379.90 7.13Q380.14 8.09 380.51 9.76L380.51 9.76L380.51 9.76Q380.97 9.27 381.39 8.76L381.39 8.76L381.39 8.76Q381.82 8.25 382.19 7.77L382.19 7.77L382.19 7.77Q382.55 7.29 382.83 6.89L382.83 6.89L382.83 6.89Q383.11 6.48 383.26 6.19L383.26 6.19L383.26 6.19Q383.42 5.92 383.42 5.64L383.42 5.64L383.42 5.64Q383.42 5.39 383.26 4.98L383.26 4.98L383.26 4.98Q383.71 5.25 383.94 5.48L383.94 5.48L383.94 5.48Q384.17 5.71 384.34 6.12L384.34 6.12L384.34 6.12Q384.31 6.45 384.15 6.79L384.15 6.79L384.15 6.79Q383.99 7.13 383.59 7.59L383.59 7.59L383.59 7.59Q383.19 8.06 382.49 8.75L382.49 8.75L382.49 8.75Q381.79 9.44 380.66 10.46L380.66 10.46L380.66 10.46Q380.93 11.72 381.18 12.59L381.18 12.59L381.18 12.59Q381.43 13.45 381.70 14.01L381.70 14.01L381.70 14.01Q381.96 14.56 382.27 14.85L382.27 14.85L382.27 14.85Q382.58 15.13 382.96 15.23ZM395.85 10.35L395.85 10.35L395.85 10.35Q396.90 9.20 397.73 7.91L397.73 7.91L397.73 7.91Q398.57 6.62 399.28 5.01L399.28 5.01L399.28 5.01Q399.64 5.05 399.98 5.21L399.98 5.21L399.98 5.21Q400.32 5.36 400.51 5.56L400.51 5.56L400.51 5.56Q399.74 6.48 399.12 7.24L399.12 7.24L399.12 7.24Q398.50 7.99 397.98 8.66L397.98 8.66L397.98 8.66Q397.46 9.32 397.02 9.93L397.02 9.93L397.02 9.93Q396.58 10.54 396.16 11.16L396.16 11.16L396.16 11.16Q395.95 11.87 395.77 12.60L395.77 12.60L395.77 12.60Q395.58 13.33 395.44 13.99L395.44 13.99L395.44 13.99Q395.30 14.66 395.23 15.22L395.23 15.22L395.23 15.22Q395.15 15.79 395.15 16.20L395.15 16.20L395.15 16.20Q395.00 16.20 394.66 16.14L394.66 16.14L394.66 16.14Q394.32 16.07 393.97 15.99L393.97 15.99L393.97 15.99Q393.62 15.90 393.34 15.82L393.34 15.82L393.34 15.82Q393.05 15.74 392.99 15.68L392.99 15.68L392.99 15.68Q393.22 15.30 393.44 14.75L393.44 14.75L393.44 14.75Q393.65 14.20 393.86 13.59L393.86 13.59L393.86 13.59Q394.07 12.98 394.27 12.36L394.27 12.36L394.27 12.36Q394.46 11.73 394.63 11.20L394.63 11.20L394.63 11.20Q394.28 10.11 393.95 9.15L393.95 9.15L393.95 9.15Q393.62 8.19 393.32 7.41L393.32 7.41L393.32 7.41Q393.01 6.64 392.73 6.08L392.73 6.08L392.73 6.08Q392.45 5.52 392.20 5.22L392.20 5.22L392.20 5.22Q392.34 5.17 392.62 5.11L392.62 5.11L392.62 5.11Q392.91 5.05 393.25 5.00L393.25 5.00L393.25 5.00Q393.60 4.94 393.95 4.91L393.95 4.91L393.95 4.91Q394.31 4.87 394.59 4.86L394.59 4.86L394.59 4.86Q394.59 5.21 394.65 5.71L394.65 5.71L394.65 5.71Q394.72 6.22 394.82 6.79L394.82 6.79L394.82 6.79Q394.93 7.36 395.07 7.95L395.07 7.95L395.07 7.95Q395.21 8.54 395.35 9.03L395.35 9.03L395.35 9.03Q395.49 9.52 395.62 9.88L395.62 9.88L395.62 9.88Q395.75 10.23 395.85 10.35Z"></path></g></svg>