<svg width="38" height="56" viewBox="0 0 38 56" fill="none" xmlns="http://www.w3.org/2000/svg">
<g filter="url(#filter0_d_1_5)">
<path d="M6.876 27.764C6.876 29.204 6.996 30.368 7.236 31.256C7.476 32.144 7.896 32.984 8.496 33.776L8.964 34.424L8.496 35H1.656L1.224 33.776L2.052 33.56C2.964 33.296 3.576 32.948 3.888 32.516C4.2 32.084 4.356 31.316 4.356 30.212V13.94C4.356 12.836 4.2 12.068 3.888 11.636C3.576 11.204 2.964 10.856 2.052 10.592L1.224 10.376L1.656 9.152H7.452L21.204 29.564V13.94C21.204 12.836 21.048 12.068 20.736 11.636C20.424 11.204 19.812 10.856 18.9 10.592L18.072 10.376L18.504 9.152H25.344L25.812 9.728L25.344 10.376C24.744 11.168 24.324 12.008 24.084 12.896C23.844 13.784 23.724 14.948 23.724 16.388V31.832C23.724 32.288 23.76 32.66 23.832 32.948C23.904 33.236 24.036 33.512 24.228 33.776L24.696 34.424L24.228 35H20.592L6.876 14.66V27.764Z" fill="#4C2606"/>
<path d="M34.632 24.408C34.392 23.52 34.128 22.86 33.84 22.428C33.576 21.972 33.204 21.66 32.724 21.492C32.244 21.3 31.572 21.204 30.708 21.204H27.576C26.928 21.204 26.436 21.276 26.1 21.42C25.788 21.564 25.572 21.828 25.452 22.212C25.332 22.596 25.272 23.172 25.272 23.94V31.212H29.484C30.06 31.212 30.564 31.092 30.996 30.852C31.452 30.588 31.896 30.156 32.328 29.556L32.616 29.16L33.336 29.556V35.712L32.112 36.144L31.896 35.316C31.68 34.5 31.296 33.96 30.744 33.696C30.216 33.408 29.292 33.264 27.972 33.264H25.272V40.212C25.272 41.316 25.428 42.084 25.74 42.516C26.052 42.948 26.664 43.296 27.576 43.56L28.404 43.776L27.972 45H20.088L19.62 44.424L20.088 43.776C20.688 42.984 21.108 42.144 21.348 41.256C21.588 40.368 21.708 39.204 21.708 37.764V26.388C21.708 24.948 21.588 23.784 21.348 22.896C21.108 22.008 20.688 21.168 20.088 20.376L19.62 19.728L20.088 19.152H30.744C32.808 19.152 34.176 18.9 34.848 18.396L35.496 17.928L36.072 18.396V24.804L34.848 25.236L34.632 24.408Z" fill="#4C2606"/>
</g>
<defs>
<filter id="filter0_d_1_5" x="1.224" y="9.15201" width="34.848" height="35.848" filterUnits="userSpaceOnUse" color-interpolation-filters="sRGB">
<feFlood flood-opacity="0" result="BackgroundImageFix"/>
<feColorMatrix in="SourceAlpha" type="matrix" values="0 0 0 0 0 0 0 0 0 0 0 0 0 0 0 0 0 0 127 0" result="hardAlpha"/>
<feOffset/>
<feComposite in2="hardAlpha" operator="out"/>
<feColorMatrix type="matrix" values="0 0 0 0 0 0 0 0 0 0 0 0 0 0 0 0 0 0 0.25 0"/>
<feBlend mode="normal" in2="BackgroundImageFix" result="effect1_dropShadow_1_5"/>
<feBlend mode="normal" in="SourceGraphic" in2="effect1_dropShadow_1_5" result="shape"/>
</filter>
</defs>
</svg>
