<svg width="162" height="29" viewBox="0 0 162 29" fill="none" xmlns="http://www.w3.org/2000/svg">
<path d="M0.388672 28V26.207L3.25391 25.873V4.55078L0.388672 4.2168V2.40625H3.25391H5.92578L19.7422 23.623L19.8477 23.5879V4.55078L16.7891 4.2168V2.40625H22.291H25.1562V4.2168L22.291 4.55078V28H19.8652L5.82031 6.69531L5.71484 6.73047V25.873L8.75586 26.207V28H0.388672ZM27.9336 28V26.207L30.7988 25.873V4.55078L27.9336 4.2168V2.40625H47.0059V8.22461H44.8262L44.5625 4.51562H33.4355V14.1133H43.4551V16.2578H33.4355V25.873L36.3008 26.207V28H27.9336ZM55.4258 28.3691C53.5508 28.3691 52.0977 27.8887 51.0664 26.9277C50.0469 25.9668 49.5371 24.6426 49.5371 22.9551C49.5371 21.7715 49.8711 20.7344 50.5391 19.8438C51.2188 18.9531 52.1797 18.2617 53.4219 17.7695C54.6758 17.2656 56.1699 17.0137 57.9043 17.0137H61.6133V14.9746C61.6133 13.6855 61.2266 12.6602 60.4531 11.8984C59.6914 11.1367 58.5605 10.7559 57.0605 10.7559C56.1934 10.7559 55.4199 10.8848 54.7402 11.1426C54.0723 11.4004 53.4746 11.7344 52.9473 12.1445L52.7012 14.957H50.6094V10.8438C51.4414 10.1406 52.3965 9.5957 53.4746 9.20898C54.5527 8.82227 55.7656 8.62891 57.1133 8.62891C59.375 8.62891 61.127 9.18555 62.3691 10.2988C63.623 11.4121 64.25 12.9824 64.25 15.0098V24.168C64.25 24.4961 64.2559 24.8184 64.2676 25.1348C64.291 25.4512 64.3262 25.7617 64.373 26.0664L66.4824 26.207V28H62C61.8828 27.3789 61.7949 26.8574 61.7363 26.4355C61.6777 26.0137 61.6426 25.5684 61.6309 25.0996C60.9395 26.0488 60.0547 26.834 58.9766 27.4551C57.8984 28.0645 56.7148 28.3691 55.4258 28.3691ZM55.7598 26.1191C57.002 26.1191 58.1621 25.8027 59.2402 25.1699C60.3301 24.5254 61.1211 23.7109 61.6133 22.7266V18.9297H57.834C56.0293 18.9297 54.6348 19.334 53.6504 20.1426C52.666 20.9512 52.1738 21.9121 52.1738 23.0254C52.1738 23.9629 52.4844 24.7129 53.1055 25.2754C53.7383 25.8379 54.623 26.1191 55.7598 26.1191ZM76.6953 28.3691C75.3828 28.3691 74.1582 28.2109 73.0215 27.8945C71.8965 27.5664 70.7832 27.0977 69.6816 26.4883L69.6641 22.3398H71.7207L72.1602 25.0996C72.8281 25.5215 73.5371 25.832 74.2871 26.0312C75.0371 26.2188 75.8398 26.3125 76.6953 26.3125C78.2188 26.3125 79.3496 25.9961 80.0879 25.3633C80.8379 24.7305 81.2129 23.9688 81.2129 23.0781C81.2129 22.2461 80.8613 21.5195 80.1582 20.8984C79.4668 20.2773 78.2305 19.7676 76.4492 19.3691C74.1641 18.8652 72.5 18.1914 71.457 17.3477C70.4258 16.5039 69.9102 15.3438 69.9102 13.8672C69.9102 12.8711 70.1914 11.9805 70.7539 11.1953C71.3164 10.4102 72.1016 9.78906 73.1094 9.33203C74.1289 8.86328 75.3242 8.62891 76.6953 8.62891C78.1133 8.62891 79.3379 8.81641 80.3691 9.19141C81.4004 9.56641 82.2852 10.0645 83.0234 10.6855L83.1465 14.7812H81.0898L80.7031 12.0566C80.2344 11.6348 79.6719 11.3125 79.0156 11.0898C78.3711 10.8555 77.5977 10.7383 76.6953 10.7383C75.4062 10.7383 74.3926 11.0371 73.6543 11.6348C72.916 12.2324 72.5469 12.9473 72.5469 13.7793C72.5469 14.3066 72.6582 14.7695 72.8809 15.168C73.1152 15.5547 73.543 15.9004 74.1641 16.2051C74.7969 16.5098 75.7227 16.8086 76.9414 17.1016C79.4258 17.6641 81.1953 18.4141 82.25 19.3516C83.3164 20.2891 83.8496 21.4785 83.8496 22.9199C83.8496 24.4902 83.252 25.791 82.0566 26.8223C80.8613 27.8535 79.0742 28.3691 76.6953 28.3691ZM86.6621 28V26.207L89.5273 25.873V2.72266L86.6621 2.38867V0.578125H92.1641V12.0039C92.7969 10.9258 93.6172 10.0938 94.625 9.50781C95.6445 8.92188 96.8105 8.62891 98.123 8.62891C100.15 8.62891 101.709 9.24414 102.799 10.4746C103.889 11.7051 104.434 13.6152 104.434 16.2051V25.873L107.299 26.207V28H98.9316V26.207L101.797 25.873V16.1699C101.797 14.2949 101.416 12.9355 100.654 12.0918C99.9043 11.248 98.8262 10.8262 97.4199 10.8262C96.1074 10.8262 95.0117 11.1836 94.1328 11.8984C93.2539 12.6016 92.5977 13.5215 92.1641 14.6582V25.873L95.0293 26.207V28H86.6621ZM109.953 28V26.207L112.818 25.873V11.125L109.953 10.791V8.98047H115.455V25.873L118.32 26.207V28H109.953ZM112.607 3.88281V0.578125H115.473V3.88281H112.607ZM129.852 28.3691C128.129 28.3691 126.635 27.959 125.369 27.1387C124.104 26.3184 123.125 25.1875 122.434 23.7461C121.742 22.293 121.396 20.6289 121.396 18.7539V18.2441C121.396 16.3809 121.742 14.7285 122.434 13.2871C123.125 11.834 124.104 10.6973 125.369 9.87695C126.635 9.04492 128.117 8.62891 129.816 8.62891C131.539 8.62891 133.033 9.04492 134.299 9.87695C135.564 10.6973 136.543 11.8281 137.234 13.2695C137.938 14.7109 138.289 16.3691 138.289 18.2441V18.7539C138.289 20.6289 137.938 22.293 137.234 23.7461C136.543 25.1992 135.564 26.3359 134.299 27.1562C133.045 27.9648 131.562 28.3691 129.852 28.3691ZM129.852 26.2422C131.082 26.2422 132.125 25.9141 132.98 25.2578C133.848 24.6016 134.51 23.7109 134.967 22.5859C135.424 21.4492 135.652 20.1719 135.652 18.7539V18.2441C135.652 16.8379 135.424 15.5723 134.967 14.4473C134.51 13.3105 133.848 12.4141 132.98 11.7578C132.113 11.1016 131.059 10.7734 129.816 10.7734C128.586 10.7734 127.537 11.1016 126.67 11.7578C125.803 12.4141 125.146 13.3105 124.701 14.4473C124.256 15.5723 124.033 16.8379 124.033 18.2441V18.7539C124.033 20.1719 124.256 21.4492 124.701 22.5859C125.146 23.7109 125.803 24.6016 126.67 25.2578C127.549 25.9141 128.609 26.2422 129.852 26.2422ZM141.189 28V26.207L144.055 25.873V11.125L141.189 10.791V8.98047H146.393L146.604 12.1621C147.213 11.0488 148.016 10.1816 149.012 9.56055C150.02 8.93945 151.203 8.62891 152.562 8.62891C154.613 8.62891 156.184 9.25 157.273 10.4922C158.375 11.7227 158.926 13.6445 158.926 16.2578V25.873L161.791 26.207V28H153.424V26.207L156.289 25.873V16.293C156.289 14.3008 155.914 12.8945 155.164 12.0742C154.414 11.2422 153.312 10.8262 151.859 10.8262C150.523 10.8262 149.422 11.1895 148.555 11.916C147.699 12.6426 147.078 13.5977 146.691 14.7812V25.873L149.557 26.207V28H141.189Z" fill="#4C2606"/>
</svg>
